<svg width="100" height="34" viewBox="0 0 100 34" fill="none" xmlns="http://www.w3.org/2000/svg">
<path d="M5.56569 11.5402L9.98307 8.98413L14.4004 11.5402L12.743 12.4388L9.98307 10.8492L7.15142 12.4388L5.56569 11.5402ZM14.3325 14.7154L12.743 13.8168L9.98307 15.4063L7.15142 13.8168L5.56192 14.7154V16.5805L8.32561 18.17V21.417L9.91511 22.3835L11.5046 21.417V18.2418L14.2683 16.6523V14.7192H14.3325V14.7154ZM14.3325 19.8275V17.9624L12.743 18.9289V20.7223L14.3325 19.8275ZM15.5067 20.4467L12.7468 22.0362V23.9013L17.1679 21.3453V16.2369L15.5105 17.2714L15.5067 20.4467ZM13.9172 13.1297L15.5067 14.0962V15.9613L17.0962 14.9948V13.1297L15.5067 12.1631L13.9172 13.1297ZM8.32561 22.7271V24.5922L9.91511 25.5588L11.5046 24.5922V22.7271L9.91511 23.6936L8.32561 22.7271ZM5.56192 19.8275L7.15142 20.7261V18.8609L5.56192 17.8944V19.8275ZM8.32561 13.1297L9.91511 14.0962L11.5726 13.1297L9.98307 12.1631L8.32561 13.1297ZM4.3915 14.0962L6.04896 13.1297L4.3915 12.1631L2.802 13.1297V14.9948L4.3915 15.9613V14.0962ZM4.3915 17.2714L2.802 16.3049V21.4132L7.22315 23.9693V22.1041L4.45946 20.5146V17.2677L4.3915 17.2714Z" fill="white"/>
<path d="M5.56569 11.5402L9.98307 8.98413L14.4004 11.5402L12.743 12.4388L9.98307 10.8492L7.15142 12.4388L5.56569 11.5402ZM14.3325 14.7154L12.743 13.8168L9.98307 15.4063L7.15142 13.8168L5.56192 14.7154V16.5805L8.32561 18.17V21.417L9.91511 22.3835L11.5046 21.417V18.2418L14.2683 16.6523V14.7192H14.3325V14.7154ZM14.3325 19.8275V17.9624L12.743 18.9289V20.7223L14.3325 19.8275ZM15.5067 20.4467L12.7468 22.0362V23.9013L17.1679 21.3453V16.2369L15.5105 17.2714L15.5067 20.4467ZM13.9172 13.1297L15.5067 14.0962V15.9613L17.0962 14.9948V13.1297L15.5067 12.1631L13.9172 13.1297ZM8.32561 22.7271V24.5922L9.91511 25.5588L11.5046 24.5922V22.7271L9.91511 23.6936L8.32561 22.7271ZM5.56192 19.8275L7.15142 20.7261V18.8609L5.56192 17.8944V19.8275ZM8.32561 13.1297L9.91511 14.0962L11.5726 13.1297L9.98307 12.1631L8.32561 13.1297ZM4.3915 14.0962L6.04896 13.1297L4.3915 12.1631L2.802 13.1297V14.9948L4.3915 15.9613V14.0962ZM4.3915 17.2714L2.802 16.3049V21.4132L7.22315 23.9693V22.1041L4.45946 20.5146V17.2677L4.3915 17.2714Z" fill="url(#paint0_linear_61_56)"/>
<path d="M29.8688 19.4121C29.8688 18.17 29.1779 17.547 28.1434 17.1317C28.8343 16.7881 29.3855 16.1652 29.3855 15.1307C29.3855 13.6809 28.2113 12.7143 26.3462 12.7143H22.0647V21.9682H26.4821C28.4869 21.8965 29.8688 21.0696 29.8688 19.4121ZM27.3127 15.4743C27.3127 16.1652 26.7615 16.4408 25.8629 16.4408H23.9978V14.4398H25.9989C26.9012 14.4398 27.3127 14.7871 27.3127 15.4743ZM27.8677 19.1365C27.8677 19.8275 27.3165 20.171 26.4179 20.171H24.0016V18.17H26.35C27.3845 18.0983 27.8677 18.5136 27.8677 19.1365Z" fill="white"/>
<path d="M29.8688 19.4121C29.8688 18.17 29.1779 17.547 28.1434 17.1317C28.8343 16.7881 29.3855 16.1652 29.3855 15.1307C29.3855 13.6809 28.2113 12.7143 26.3462 12.7143H22.0647V21.9682H26.4821C28.4869 21.8965 29.8688 21.0696 29.8688 19.4121ZM27.3127 15.4743C27.3127 16.1652 26.7615 16.4408 25.8629 16.4408H23.9978V14.4398H25.9989C26.9012 14.4398 27.3127 14.7871 27.3127 15.4743ZM27.8677 19.1365C27.8677 19.8275 27.3165 20.171 26.4179 20.171H24.0016V18.17H26.35C27.3845 18.0983 27.8677 18.5136 27.8677 19.1365Z" fill="url(#paint1_linear_61_56)"/>
<path d="M39.8816 12.7144H37.8767V18.3777L33.5273 12.7144H31.666V21.9682H33.667V16.0973L38.1561 21.9682H39.8816V12.7144Z" fill="white"/>
<path d="M39.8816 12.7144H37.8767V18.3777L33.5273 12.7144H31.666V21.9682H33.667V16.0973L38.1561 21.9682H39.8816V12.7144Z" fill="url(#paint2_linear_61_56)"/>
<path d="M50.0302 19.4121C50.0302 18.17 49.3393 17.547 48.3048 17.1317C48.9957 16.7881 49.547 16.1652 49.547 15.1307C49.547 13.6809 48.3728 12.7143 46.5077 12.7143H42.2262V21.9682H46.6436C48.6484 21.8965 50.0302 21.0696 50.0302 19.4121ZM47.5459 15.4743C47.5459 16.1652 46.9947 16.4408 46.0961 16.4408H44.231V14.4398H46.232C47.0627 14.4398 47.5459 14.7871 47.5459 15.4743ZM48.0292 19.1365C48.0292 19.8275 47.478 20.171 46.5794 20.171H44.163V18.17H46.5114C47.5459 18.0983 48.0292 18.5136 48.0292 19.1365Z" fill="white"/>
<path d="M50.0302 19.4121C50.0302 18.17 49.3393 17.547 48.3048 17.1317C48.9957 16.7881 49.547 16.1652 49.547 15.1307C49.547 13.6809 48.3728 12.7143 46.5077 12.7143H42.2262V21.9682H46.6436C48.6484 21.8965 50.0302 21.0696 50.0302 19.4121ZM47.5459 15.4743C47.5459 16.1652 46.9947 16.4408 46.0961 16.4408H44.231V14.4398H46.232C47.0627 14.4398 47.5459 14.7871 47.5459 15.4743ZM48.0292 19.1365C48.0292 19.8275 47.478 20.171 46.5794 20.171H44.163V18.17H46.5114C47.5459 18.0983 48.0292 18.5136 48.0292 19.1365Z" fill="url(#paint3_linear_61_56)"/>
<path d="M62.2516 20.3108L61.2171 19.2763C60.4583 20.0352 59.6994 20.4505 58.5931 20.4505C56.796 20.4505 55.5538 19.0007 55.5538 17.1356C55.5538 15.3384 56.8677 13.8924 58.5931 13.8924C59.6276 13.8924 60.4583 14.3757 61.1492 15.0666L62.1837 13.8244C61.2851 12.9976 60.2506 12.3746 58.5931 12.3746C55.8295 12.3746 53.8284 14.5154 53.8284 17.1394C53.8284 19.8313 55.8295 21.9041 58.5252 21.9041C60.2506 21.8965 61.2851 21.2774 62.2516 20.3108Z" fill="white"/>
<path d="M62.2516 20.3108L61.2171 19.2763C60.4583 20.0352 59.6994 20.4505 58.5931 20.4505C56.796 20.4505 55.5538 19.0007 55.5538 17.1356C55.5538 15.3384 56.8677 13.8924 58.5931 13.8924C59.6276 13.8924 60.4583 14.3757 61.1492 15.0666L62.1837 13.8244C61.2851 12.9976 60.2506 12.3746 58.5931 12.3746C55.8295 12.3746 53.8284 14.5154 53.8284 17.1394C53.8284 19.8313 55.8295 21.9041 58.5252 21.9041C60.2506 21.8965 61.2851 21.2774 62.2516 20.3108Z" fill="url(#paint4_linear_61_56)"/>
<path d="M70.1236 17.8944V21.7606H71.7131V12.5067H70.1236V16.3729H65.7062V12.5067H64.1167V21.7606H65.7062V17.8944H70.1236Z" fill="white"/>
<path d="M70.1236 17.8944V21.7606H71.7131V12.5067H70.1236V16.3729H65.7062V12.5067H64.1167V21.7606H65.7062V17.8944H70.1236Z" fill="url(#paint5_linear_61_56)"/>
<path d="M79.0299 12.5067H77.5121L73.4383 21.8286H75.0958L76.0623 19.6199H80.4117L81.3783 21.8286H83.1037L79.0299 12.5067ZM79.8605 18.0983H76.6853L78.2748 14.4398L79.8605 18.0983Z" fill="white"/>
<path d="M79.0299 12.5067H77.5121L73.4383 21.8286H75.0958L76.0623 19.6199H80.4117L81.3783 21.8286H83.1037L79.0299 12.5067ZM79.8605 18.0983H76.6853L78.2748 14.4398L79.8605 18.0983Z" fill="url(#paint6_linear_61_56)"/>
<path d="M84.901 12.5067V21.7606H86.4868V12.5067H84.901Z" fill="white"/>
<path d="M84.901 12.5067V21.7606H86.4868V12.5067H84.901Z" fill="url(#paint7_linear_61_56)"/>
<path d="M95.5332 18.9289L90.5608 12.5747H89.111V21.8286H90.7005V15.1987L95.8088 21.7606H97.1906V12.5067H95.6011V18.9289H95.5332Z" fill="white"/>
<path d="M95.5332 18.9289L90.5608 12.5747H89.111V21.8286H90.7005V15.1987L95.8088 21.7606H97.1906V12.5067H95.6011V18.9289H95.5332Z" fill="url(#paint8_linear_61_56)"/>
<defs>
<linearGradient id="paint0_linear_61_56" x1="49.9963" y1="8.98413" x2="49.9963" y2="25.5588" gradientUnits="userSpaceOnUse">
<stop stop-color="white"/>
<stop offset="1" stop-color="white" stop-opacity="0"/>
</linearGradient>
<linearGradient id="paint1_linear_61_56" x1="49.9963" y1="8.98413" x2="49.9963" y2="25.5588" gradientUnits="userSpaceOnUse">
<stop stop-color="white"/>
<stop offset="1" stop-color="white" stop-opacity="0"/>
</linearGradient>
<linearGradient id="paint2_linear_61_56" x1="49.9963" y1="8.98413" x2="49.9963" y2="25.5588" gradientUnits="userSpaceOnUse">
<stop stop-color="white"/>
<stop offset="1" stop-color="white" stop-opacity="0"/>
</linearGradient>
<linearGradient id="paint3_linear_61_56" x1="49.9963" y1="8.98413" x2="49.9963" y2="25.5588" gradientUnits="userSpaceOnUse">
<stop stop-color="white"/>
<stop offset="1" stop-color="white" stop-opacity="0"/>
</linearGradient>
<linearGradient id="paint4_linear_61_56" x1="49.9963" y1="8.98413" x2="49.9963" y2="25.5588" gradientUnits="userSpaceOnUse">
<stop stop-color="white"/>
<stop offset="1" stop-color="white" stop-opacity="0"/>
</linearGradient>
<linearGradient id="paint5_linear_61_56" x1="49.9963" y1="8.98413" x2="49.9963" y2="25.5588" gradientUnits="userSpaceOnUse">
<stop stop-color="white"/>
<stop offset="1" stop-color="white" stop-opacity="0"/>
</linearGradient>
<linearGradient id="paint6_linear_61_56" x1="49.9963" y1="8.98413" x2="49.9963" y2="25.5588" gradientUnits="userSpaceOnUse">
<stop stop-color="white"/>
<stop offset="1" stop-color="white" stop-opacity="0"/>
</linearGradient>
<linearGradient id="paint7_linear_61_56" x1="49.9963" y1="8.98413" x2="49.9963" y2="25.5588" gradientUnits="userSpaceOnUse">
<stop stop-color="white"/>
<stop offset="1" stop-color="white" stop-opacity="0"/>
</linearGradient>
<linearGradient id="paint8_linear_61_56" x1="49.9963" y1="8.98413" x2="49.9963" y2="25.5588" gradientUnits="userSpaceOnUse">
<stop stop-color="white"/>
<stop offset="1" stop-color="white" stop-opacity="0"/>
</linearGradient>
</defs>
</svg>
