<svg width="100" height="34" viewBox="0 0 100 34" fill="none" xmlns="http://www.w3.org/2000/svg">
<path d="M33.0238 12.8012C33.744 12.8012 34.3662 12.9283 34.889 13.1777C35.4144 13.4296 35.8479 13.7689 36.1956 14.1956C36.5387 14.6245 36.794 15.1258 36.9588 15.7003C37.1226 16.2765 37.2047 16.8958 37.2047 17.5588C37.2047 18.5773 37.0152 19.5394 36.6325 20.4464C36.2498 21.3548 35.7305 22.1427 35.07 22.8147C34.41 23.4859 33.6307 24.0151 32.7321 24.406C31.8349 24.7972 30.8594 24.9928 29.812 24.9928C29.6765 24.9928 29.4384 24.989 29.1021 24.9822C28.7657 24.9754 28.3791 24.9412 27.9462 24.8836C27.5105 24.8237 27.0498 24.7352 26.5633 24.6167C26.077 24.5003 25.6152 24.3372 25.1803 24.1301L29.069 8.04581L32.552 7.51446L31.1597 13.2222C31.4577 13.09 31.758 12.9875 32.0577 12.913C32.3577 12.8395 32.6797 12.8012 33.0238 12.8012ZM30.1023 22.273C30.6268 22.273 31.1211 22.1459 31.5854 21.8965C32.0511 21.6468 32.4529 21.3097 32.7896 20.8898C33.1262 20.468 33.3926 19.9929 33.5869 19.4621C33.7812 18.9313 33.8794 18.3776 33.8794 17.8014C33.8794 17.0936 33.7592 16.5415 33.5197 16.1423C33.2802 15.7448 32.837 15.5449 32.1934 15.5449C31.9825 15.5449 31.7108 15.5845 31.3739 15.6552C31.0359 15.7304 30.7334 15.8863 30.4622 16.121L28.9797 22.1825C29.069 22.1981 29.1481 22.2129 29.2156 22.2268C29.2816 22.2418 29.3546 22.2525 29.4273 22.2599C29.5042 22.2683 29.5922 22.2727 29.6985 22.2727C29.8048 22.2727 29.9377 22.273 30.1023 22.273Z" fill="white"/>
<path d="M40.8176 24.6836H37.4909L40.3002 13.0465H43.6497L40.8176 24.6836ZM42.4364 11.6287C41.9721 11.6287 41.5511 11.4926 41.1775 11.22C40.8009 10.949 40.6144 10.5318 40.6144 9.96961C40.6144 9.66036 40.6782 9.37023 40.8048 9.0965C40.9333 8.82331 41.1012 8.58809 41.3116 8.38812C41.5216 8.18978 41.765 8.03133 42.0415 7.91195C42.3195 7.79448 42.6154 7.73574 42.9306 7.73574C43.3947 7.73574 43.8134 7.87179 44.1884 8.14443C44.5619 8.41844 44.7498 8.8356 44.7498 9.39482C44.7498 9.70516 44.6863 9.99638 44.5586 10.2696C44.4318 10.5428 44.2639 10.778 44.0535 10.978C43.8451 11.1766 43.5995 11.3345 43.3236 11.4528C43.0453 11.5721 42.7505 11.6287 42.4364 11.6287Z" fill="white"/>
<path d="M46.5646 10.1477L50.0489 9.61638L49.1933 13.0465H52.9249L52.2511 15.7451H48.542L47.554 19.8156C47.4629 20.1549 47.4113 20.4718 47.3969 20.7663C47.3805 21.0622 47.4185 21.3163 47.5084 21.5302C47.5978 21.7446 47.7585 21.9099 47.9916 22.0268C48.2236 22.1457 48.5558 22.2055 48.9915 22.2055C49.3504 22.2055 49.7001 22.1719 50.0381 22.1052C50.3742 22.0397 50.7147 21.9484 51.0594 21.829L51.3075 24.3522C50.8579 24.5145 50.3711 24.6541 49.8466 24.7716C49.3212 24.8907 48.6993 24.948 47.9805 24.948C46.947 24.948 46.1458 24.797 45.5749 24.4962C45.0049 24.1932 44.6019 23.7793 44.3607 23.2554C44.1229 22.7333 44.0166 22.1315 44.0463 21.4534C44.0771 20.7737 44.1812 20.0593 44.3607 19.307L46.5646 10.1477Z" fill="white"/>
<path d="M52.7781 20.038C52.7781 19.0357 52.9429 18.0904 53.2724 17.2056C53.6012 16.3199 54.075 15.5454 54.6897 14.8807C55.3022 14.2193 56.0485 13.6954 56.9268 13.3107C57.801 12.9283 58.7799 12.7354 59.8586 12.7354C60.5338 12.7354 61.1369 12.7982 61.6675 12.9242C62.2004 13.0512 62.6824 13.2154 63.1184 13.4214L61.9712 15.9893C61.6714 15.8697 61.3603 15.7642 61.0387 15.6686C60.7167 15.5711 60.3238 15.5241 59.8589 15.5241C58.7485 15.5241 57.8707 15.9008 57.2174 16.6518C56.5666 17.4034 56.2388 18.415 56.2388 19.684C56.2388 20.436 56.4037 21.0442 56.7345 21.5094C57.0637 21.9746 57.6717 22.206 58.5545 22.206C58.9902 22.206 59.4107 22.1612 59.8134 22.0738C60.2191 21.9853 60.5774 21.8738 60.893 21.7422L61.1413 24.3746C60.7206 24.5353 60.2566 24.6803 59.7476 24.8073C59.2375 24.93 58.6303 24.9937 57.9262 24.9937C56.9968 24.9937 56.21 24.8598 55.5664 24.5962C54.9226 24.3284 54.3905 23.973 53.9715 23.5228C53.5502 23.0715 53.2477 22.5445 53.0606 21.9397C52.8736 21.3354 52.7781 20.7005 52.7781 20.038Z" fill="white"/>
<path d="M67.5558 24.9931C66.7618 24.9931 66.0722 24.874 65.4871 24.6382C64.9038 24.4025 64.4206 24.0716 64.0384 23.6427C63.6557 23.216 63.3693 22.7103 63.1731 22.1276C62.9769 21.5452 62.8826 20.9002 62.8826 20.1935C62.8826 19.307 63.0271 18.4207 63.3194 17.537C63.6102 16.6513 64.0418 15.8555 64.6129 15.1482C65.1796 14.4398 65.8787 13.8606 66.7019 13.4091C67.5242 12.9605 68.47 12.7348 69.5324 12.7348C70.3119 12.7348 70.998 12.8542 71.591 13.09C72.1814 13.3252 72.6676 13.6588 73.0519 14.0855C73.4322 14.5144 73.7211 15.0179 73.9153 15.6014C74.111 16.1828 74.2076 16.8294 74.2076 17.5367C74.2076 18.4205 74.0649 19.3067 73.7818 20.1932C73.4985 21.0753 73.078 21.873 72.523 22.5819C71.969 23.2892 71.2763 23.8681 70.4443 24.3178C69.6134 24.7675 68.6498 24.9931 67.5558 24.9931ZM69.2185 15.5238C68.7253 15.5238 68.2893 15.6648 67.9161 15.9432C67.5414 16.2248 67.2267 16.5789 66.973 17.0059C66.7166 17.4348 66.5265 17.9025 66.398 18.4109C66.2706 18.9204 66.2082 19.402 66.2082 19.8596C66.2082 20.598 66.3292 21.1731 66.567 21.587C66.8082 21.9987 67.2414 22.2058 67.8711 22.2058C68.3659 22.2058 68.7997 22.0659 69.1752 21.7845C69.5476 21.505 69.8626 21.1507 70.1182 20.7229C70.373 20.2962 70.5648 19.8271 70.6932 19.3179C70.819 18.81 70.8831 18.3257 70.8831 17.8689C70.8831 17.1324 70.7626 16.5559 70.5226 16.1426C70.2828 15.7309 69.8476 15.5238 69.2185 15.5238Z" fill="white"/>
<path d="M77.8337 24.6836H74.5042L77.3136 13.0465H80.6648L77.8337 24.6836ZM79.45 11.6287C78.986 11.6287 78.5653 11.4926 78.1923 11.22C77.8176 10.949 77.6295 10.5318 77.6295 9.96961C77.6295 9.66036 77.6941 9.37023 77.821 9.0965C77.9478 8.82331 78.1168 8.58809 78.3272 8.38812C78.5361 8.18978 78.7818 8.03133 79.0576 7.91195C79.334 7.79448 79.6299 7.73574 79.944 7.73574C80.4092 7.73574 80.8293 7.87179 81.2035 8.14443C81.5778 8.41844 81.7668 8.8356 81.7668 9.39482C81.7668 9.70516 81.6997 9.99638 81.5739 10.2696C81.4482 10.5428 81.2792 10.778 81.0697 10.978C80.8588 11.1766 80.6162 11.3345 80.3398 11.4528C80.0612 11.5721 79.7659 11.6287 79.45 11.6287Z" fill="white"/>
<path d="M83.0609 13.5768C83.3135 13.5041 83.5955 13.4167 83.9021 13.3216C84.2099 13.2266 84.5537 13.1381 84.9378 13.0583C85.3178 12.9761 85.7466 12.9094 86.2181 12.8578C86.6896 12.805 87.2269 12.7794 87.8238 12.7794C89.5784 12.7794 90.7878 13.2823 91.4556 14.2852C92.1227 15.2881 92.2382 16.6606 91.8052 18.4002L90.275 24.6836H86.9263L88.4094 18.5325C88.4999 18.1484 88.5709 17.7771 88.6234 17.4143C88.6764 17.0548 88.6733 16.7379 88.6115 16.4636C88.5523 16.1926 88.413 15.9708 88.1968 15.7989C87.9773 15.6298 87.6457 15.5449 87.1958 15.5449C86.762 15.5449 86.3208 15.5908 85.8703 15.6793L83.6898 24.6833H80.3398L83.0609 13.5768Z" fill="white"/>
<path fill-rule="evenodd" clip-rule="evenodd" d="M13.7307 24.7333C18.4889 25.9012 23.3076 23.051 24.4937 18.3677C25.6799 13.6842 22.7847 8.93996 18.0268 7.77235C13.27 6.60474 8.45135 9.45519 7.26575 14.139C6.07905 18.822 8.97448 23.5657 13.7307 24.7333ZM17.8406 12.8018C19.0709 13.2189 19.9706 13.8443 19.7938 15.0075C19.6659 15.859 19.1863 16.2713 18.5497 16.4158C19.4239 16.8638 19.8688 17.5509 19.445 18.742C18.9191 20.2213 17.6697 20.3462 16.0081 20.0366L15.6049 21.6274L14.6305 21.3884L15.0284 19.8189C14.7759 19.7572 14.5178 19.6916 14.2519 19.6206L13.8526 21.1974L12.8793 20.9584L13.2825 19.3646C13.1915 19.3417 13.1 19.3182 13.0078 19.2945C12.8694 19.259 12.7295 19.223 12.5879 19.1881L11.3199 18.877L11.8036 17.779C11.8036 17.779 12.5215 17.967 12.5118 17.953C12.7877 18.0202 12.9101 17.8432 12.9584 17.7252L13.5956 15.2105C13.6195 15.2161 13.6429 15.2219 13.6655 15.2275C13.6767 15.2303 13.6878 15.233 13.6985 15.2356C13.6597 15.2203 13.6244 15.2105 13.5972 15.2036L14.0518 13.4085C14.0638 13.2047 13.9924 12.9476 13.5978 12.8507C13.6131 12.8406 12.8901 12.6775 12.8901 12.6775L13.1493 11.653L14.4931 11.9833L14.492 11.9882C14.694 12.0377 14.9022 12.0846 15.1142 12.1322L15.5136 10.557L16.4874 10.796L16.0961 12.3403C16.3575 12.3991 16.6206 12.4584 16.8768 12.5212L17.2653 10.987L18.2397 11.226L17.8406 12.8018ZM14.7585 18.5149C14.687 18.4963 14.6231 18.4797 14.5686 18.4663L15.1036 16.3549C15.17 16.3712 15.2512 16.3891 15.343 16.4094C16.1654 16.591 17.8506 16.9633 17.5675 18.0806C17.2913 19.1734 15.5536 18.7216 14.7585 18.5149ZM15.5083 15.4295C15.448 15.4137 15.3942 15.3996 15.3484 15.3883L15.8335 13.4733C15.8892 13.4869 15.9573 13.5018 16.0345 13.5186C16.7208 13.6681 18.1261 13.9744 17.8689 14.9903C17.6171 15.9835 16.1711 15.6037 15.5083 15.4295Z" fill="white"/>
</svg>
