<svg width="99" height="34" viewBox="0 0 99 34" fill="none" xmlns="http://www.w3.org/2000/svg">
<path d="M45.6859 18.466V21.7824C45.6839 21.8504 45.6562 21.9151 45.6085 21.9632C45.5608 22.0113 45.4966 22.0391 45.4291 22.0411C45.3952 22.0421 45.3613 22.0361 45.3298 22.0234C45.2982 22.0108 45.2695 21.9917 45.2455 21.9675C45.2214 21.9433 45.2026 21.9144 45.19 21.8825C45.1774 21.8507 45.1715 21.8166 45.1724 21.7824V18.466C45.1724 17.3449 44.5423 16.2316 43.3054 16.2316C41.7184 16.2316 41.0338 17.6272 41.1272 19.0619C41.1272 19.0839 41.1321 19.1456 41.1364 19.1996C41.1397 19.2414 41.1427 19.279 41.1427 19.2892V21.7746C41.1426 21.8408 41.119 21.9048 41.0763 21.9551C41.0335 22.0054 40.9743 22.0387 40.9094 22.049C40.8731 22.0538 40.8361 22.0507 40.8011 22.0399C40.7661 22.029 40.7339 22.0107 40.7065 21.9861C40.6792 21.9616 40.6575 21.9314 40.6428 21.8976C40.6281 21.8637 40.6209 21.8271 40.6215 21.7902V10.8847C40.6221 10.8163 40.6494 10.7508 40.6974 10.7024C40.7454 10.654 40.8103 10.6266 40.8782 10.626C40.9457 10.6279 41.0099 10.6558 41.0576 10.7039C41.1053 10.752 41.133 10.8167 41.135 10.8847V17.047C41.5784 16.2473 42.3719 15.7063 43.2976 15.7063C44.8224 15.7063 45.6859 17.047 45.6859 18.466Z" fill="white"/>
<path d="M37.4246 15.8941C37.3769 15.846 37.3127 15.8181 37.2453 15.8161H35.8683V13.8012C35.869 13.7643 35.8617 13.7277 35.8471 13.6939C35.8324 13.6601 35.8106 13.6299 35.7833 13.6053C35.756 13.5807 35.7237 13.5624 35.6887 13.5516C35.6537 13.5407 35.6168 13.5376 35.5805 13.5425C35.5156 13.5528 35.4564 13.586 35.4136 13.6363C35.3708 13.6866 35.3473 13.7506 35.3471 13.8169V15.8161H34.0169C33.949 15.8167 33.884 15.8442 33.836 15.8926C33.788 15.941 33.7607 16.0064 33.7601 16.0748C33.7592 16.1091 33.7652 16.1432 33.7777 16.175C33.7903 16.2068 33.8091 16.2357 33.8332 16.26C33.8572 16.2842 33.8859 16.3032 33.9175 16.3159C33.9491 16.3285 33.9829 16.3345 34.0169 16.3336H35.3471V21.8138C35.3491 21.8818 35.3768 21.9464 35.4245 21.9945C35.4722 22.0426 35.5364 22.0705 35.6038 22.0725C35.6717 22.0719 35.7367 22.0444 35.7847 21.996C35.8327 21.9477 35.8599 21.8822 35.8606 21.8138V16.3336H37.2453C37.2792 16.3345 37.3131 16.3285 37.3446 16.3159C37.3762 16.3032 37.4049 16.2842 37.4289 16.26C37.453 16.2357 37.4719 16.2068 37.4844 16.175C37.497 16.1432 37.503 16.1091 37.502 16.0748C37.5 16.0068 37.4724 15.9422 37.4246 15.8941Z" fill="white"/>
<path fill-rule="evenodd" clip-rule="evenodd" d="M30.8913 19.1084C30.9438 19.057 30.9739 18.9867 30.9751 18.913C30.9674 17.243 29.7227 15.6907 27.9801 15.6907C26.2375 15.6907 25.0006 17.2587 25.0006 18.9286C25.0006 20.5986 26.2453 22.1666 27.9801 22.1666C28.9914 22.1666 30.0261 21.7197 30.5473 20.8103C30.5728 20.7706 30.5863 20.7243 30.5862 20.677C30.5871 20.6427 30.5812 20.6087 30.5686 20.5768C30.556 20.545 30.5372 20.5161 30.5131 20.4919C30.4891 20.4676 30.4604 20.4486 30.4288 20.436C30.3972 20.4233 30.3634 20.4173 30.3294 20.4182C30.2839 20.4202 30.2395 20.4333 30.2002 20.4565C30.1608 20.4798 30.1278 20.5124 30.1038 20.5515C29.5904 21.2963 28.9058 21.6491 27.9801 21.6491C26.6265 21.6491 25.6696 20.4731 25.5374 19.1874H30.6951C30.7683 19.1882 30.8388 19.1598 30.8913 19.1084ZM27.9801 16.2081C29.3337 16.2081 30.3139 17.3841 30.4228 18.6699H25.5374C25.6696 17.3841 26.6265 16.2081 27.9801 16.2081Z" fill="white"/>
<path fill-rule="evenodd" clip-rule="evenodd" d="M54.8671 19.1084C54.9196 19.057 54.9497 18.9867 54.951 18.913C54.9432 17.243 53.6829 15.6907 51.9559 15.6907C50.2134 15.6907 48.9765 17.2587 48.9765 18.9286C48.9765 20.5986 50.2211 22.1666 51.9559 22.1666C52.9672 22.1666 54.0019 21.7197 54.5231 20.8103C54.5487 20.7706 54.5622 20.7243 54.562 20.677C54.563 20.6427 54.557 20.6087 54.5444 20.5768C54.5319 20.545 54.513 20.5161 54.489 20.4919C54.4649 20.4676 54.4362 20.4486 54.4047 20.436C54.3731 20.4233 54.3393 20.4173 54.3053 20.4182C54.2597 20.4202 54.2153 20.4333 54.176 20.4565C54.1367 20.4798 54.1036 20.5124 54.0797 20.5515C53.5662 21.2963 52.8817 21.6491 51.9559 21.6491C50.6023 21.6491 49.6455 20.4731 49.5132 19.1874H54.6709C54.7441 19.1882 54.8146 19.1598 54.8671 19.1084ZM51.9482 16.2081C53.3018 16.2081 54.2819 17.3841 54.3909 18.6699H49.5055C49.6377 17.3841 50.5946 16.2081 51.9482 16.2081Z" fill="white"/>
<path d="M61.2911 16.0591C61.2961 16.1287 61.2735 16.1975 61.2283 16.2504C61.1831 16.3032 61.119 16.336 61.05 16.3414C59.533 16.5687 58.8484 17.8153 58.8484 19.2657V21.751C58.8483 21.8173 58.8247 21.8813 58.7819 21.9316C58.7392 21.9819 58.68 22.0152 58.615 22.0254C58.5787 22.0303 58.5418 22.0272 58.5068 22.0164C58.4718 22.0055 58.4396 21.9872 58.4122 21.9626C58.3849 21.9381 58.3632 21.9078 58.3485 21.874C58.3338 21.8402 58.3266 21.8036 58.3272 21.7667V16.0983C58.3273 16.0321 58.3509 15.9681 58.3937 15.9178C58.4365 15.8675 58.4957 15.8342 58.5606 15.8239C58.5969 15.8191 58.6338 15.8222 58.6688 15.833C58.7038 15.8439 58.7361 15.8622 58.7634 15.8867C58.7907 15.9113 58.8125 15.9415 58.8271 15.9753C58.8418 16.0092 58.8491 16.0458 58.8484 16.0827V17.2352C59.2763 16.506 60.1242 15.8161 61.0111 15.8161C61.1433 15.8161 61.2911 15.9102 61.2911 16.0591Z" fill="white"/>
<path fill-rule="evenodd" clip-rule="evenodd" d="M69.6867 19.1084C69.7392 19.057 69.7693 18.9867 69.7706 18.913C69.7628 17.243 68.5181 15.6907 66.7755 15.6907C65.033 15.6907 63.796 17.2587 63.796 18.9286C63.796 20.5986 65.0407 22.1666 66.7755 22.1666C67.7868 22.1666 68.8215 21.7197 69.3427 20.8103C69.3682 20.7706 69.3818 20.7243 69.3816 20.677C69.3826 20.6427 69.3766 20.6087 69.364 20.5768C69.3515 20.545 69.3326 20.5161 69.3085 20.4919C69.2845 20.4676 69.2558 20.4486 69.2242 20.436C69.1927 20.4233 69.1588 20.4173 69.1249 20.4182C69.0793 20.4202 69.0349 20.4333 68.9956 20.4565C68.9562 20.4798 68.9232 20.5124 68.8993 20.5515C68.3858 21.2963 67.7013 21.6491 66.7755 21.6491C65.4219 21.6491 64.4651 20.4731 64.3328 19.1874H69.4905C69.5637 19.1882 69.6342 19.1598 69.6867 19.1084ZM66.7755 16.2081C68.1291 16.2081 69.1093 17.3841 69.2182 18.6699H64.3328C64.4651 17.3841 65.4219 16.2081 66.7755 16.2081Z" fill="white"/>
<path d="M78.11 16.1219V21.8138C78.108 21.8817 78.0804 21.9464 78.0326 21.9945C77.9849 22.0426 77.9207 22.0705 77.8533 22.0725C77.8193 22.0735 77.7855 22.0674 77.7539 22.0548C77.7223 22.0421 77.6936 22.0231 77.6696 21.9989C77.6456 21.9746 77.6267 21.9457 77.6141 21.9139C77.6016 21.8821 77.5956 21.848 77.5966 21.8138V20.7318C77.1687 21.5864 76.4141 22.2058 75.4495 22.2058C73.9169 22.2058 73.069 20.8651 73.069 19.446V16.114C73.0696 16.0456 73.0969 15.9801 73.1449 15.9317C73.1929 15.8834 73.2578 15.8559 73.3257 15.8553C73.3932 15.8573 73.4574 15.8852 73.5051 15.9333C73.5528 15.9814 73.5805 16.046 73.5824 16.114V19.446C73.5824 20.5672 74.2126 21.6805 75.4495 21.6805C77.1843 21.6805 77.5966 20.0419 77.5966 18.2308V16.1062C77.5971 16.0642 77.6077 16.023 77.6273 15.986C77.6469 15.949 77.675 15.9173 77.7093 15.8935C77.7436 15.8697 77.783 15.8545 77.8243 15.8493C77.8656 15.844 77.9075 15.8487 77.9466 15.8631C77.9955 15.886 78.0369 15.9226 78.0658 15.9684C78.0948 16.0143 78.1101 16.0675 78.11 16.1219Z" fill="white"/>
<path d="M91.1715 21.7745V18.4425C91.1715 17.0313 90.308 15.7063 88.791 15.7063C87.7252 15.7063 86.8928 16.3884 86.465 17.3606C86.1305 16.3806 85.3136 15.7063 84.2634 15.7063C83.3377 15.7063 82.5442 16.2316 82.1008 17.0313V16.0826C82.1014 16.0458 82.0942 16.0091 82.0795 15.9753C82.0648 15.9415 82.0431 15.9113 82.0158 15.8867C81.9884 15.8622 81.9562 15.8438 81.9212 15.833C81.8862 15.8222 81.8493 15.8191 81.813 15.8239C81.748 15.8342 81.6888 15.8675 81.6461 15.9178C81.6033 15.9681 81.5797 16.0321 81.5796 16.0983V21.7824C81.5789 21.8193 81.5862 21.8559 81.6009 21.8897C81.6155 21.9235 81.6373 21.9537 81.6646 21.9783C81.6919 22.0029 81.7242 22.0212 81.7592 22.032C81.7942 22.0429 81.8311 22.046 81.8674 22.0411C81.9324 22.0308 81.9915 21.9976 82.0343 21.9473C82.0771 21.897 82.1007 21.833 82.1008 21.7667V19.2657C82.1114 19.2497 82.1076 19.212 82.104 19.1771C82.1024 19.1607 82.1008 19.145 82.1008 19.1324C82.0463 17.4703 82.692 16.2238 84.2634 16.2238C85.5004 16.2238 86.1305 17.3214 86.1305 18.4425V21.7745C86.1295 21.8088 86.1355 21.8429 86.148 21.8747C86.1606 21.9065 86.1795 21.9354 86.2035 21.9597C86.2275 21.9839 86.2562 22.0029 86.2878 22.0156C86.3194 22.0282 86.3532 22.0342 86.3872 22.0333C86.4547 22.0313 86.5188 22.0034 86.5666 21.9553C86.6143 21.9072 86.6419 21.8425 86.6439 21.7745V19.203C86.6439 17.9015 87.2351 16.2238 88.791 16.2238C90.0279 16.2238 90.658 17.3214 90.658 18.4425V21.7745C90.6571 21.8088 90.663 21.8429 90.6756 21.8747C90.6882 21.9065 90.707 21.9354 90.7311 21.9597C90.7551 21.9839 90.7838 22.0029 90.8154 22.0156C90.847 22.0282 90.8808 22.0342 90.9147 22.0333C90.9822 22.0313 91.0464 22.0034 91.0941 21.9553C91.1418 21.9072 91.1695 21.8425 91.1715 21.7745Z" fill="white"/>
<path d="M13.7047 21.2605C13.6418 21.2821 13.6059 21.2269 13.5631 21.2015C11.466 19.9542 9.37122 18.7059 7.27873 17.4569C7.25847 17.4466 7.23744 17.4379 7.21582 17.4309V17.403L7.25294 17.3814C7.30565 17.3675 7.35753 17.3505 7.40834 17.3307L12.3502 15.0646C12.7906 14.8624 13.2309 14.6633 13.6713 14.4629H13.7028C13.7028 14.5263 13.7028 14.5827 13.7028 14.643C13.7045 16.849 13.7051 19.0549 13.7047 21.2605Z" fill="white"/>
<path d="M13.7078 14.4644H13.6763C13.6763 14.401 13.6826 14.3376 13.6826 14.2711C13.6826 11.7932 13.6826 9.31515 13.6826 6.83688C13.6754 6.77323 13.6797 6.70878 13.6952 6.64667H13.7084C13.967 7.03153 14.1922 7.43732 14.4301 7.83487C16.3141 10.9844 18.1971 14.1335 20.079 17.2821C20.0973 17.3132 20.1117 17.3456 20.1281 17.3798C20.0748 17.3683 20.0224 17.3528 19.9714 17.3335C19.626 17.1763 19.2794 17.0165 18.9371 16.8561C18.4011 16.6088 17.8649 16.3619 17.3285 16.1155L14.744 14.9355C14.3999 14.7758 14.0538 14.6204 13.7078 14.4644Z" fill="white"/>
<path d="M13.6973 6.64339C13.6817 6.70551 13.6775 6.76995 13.6847 6.8336C13.6847 9.31145 13.6847 11.7895 13.6847 14.2678C13.6847 14.3312 13.6809 14.3946 13.6784 14.4612C13.238 14.6615 12.7976 14.8606 12.3572 15.0629L7.41542 17.329C7.36461 17.3488 7.31273 17.3657 7.26002 17.3797C7.40284 17.0804 7.58843 16.809 7.75767 16.5225C9.71846 13.2377 11.6807 9.95353 13.6444 6.67002C13.6574 6.65183 13.6715 6.63447 13.6866 6.61803L13.6973 6.64339Z" fill="white"/>
<path d="M13.7078 14.4644C14.0538 14.6204 14.4 14.7758 14.7454 14.9331L17.3298 16.113C17.8667 16.359 18.4029 16.6059 18.9385 16.8536C19.2833 17.0127 19.6306 17.1738 19.9728 17.331C20.0238 17.3504 20.0762 17.3658 20.1295 17.3773C20.1924 17.4566 20.0993 17.4597 20.0709 17.4769C19.5343 17.8002 18.9951 18.1191 18.4572 18.44C16.9133 19.3606 15.3699 20.281 13.8268 21.2012C13.7878 21.2241 13.7456 21.2409 13.7047 21.2605C13.7047 19.0553 13.7048 16.8502 13.7048 14.6446C13.7054 14.5843 13.7072 14.5247 13.7078 14.4644Z" fill="white"/>
<path d="M13.6826 22.5132L17.7247 20.112C18.4965 19.653 19.2678 19.1935 20.0387 18.7336L20.1085 18.695C20.1154 18.7584 20.072 18.792 20.0456 18.8287C18.284 21.3315 16.5225 23.8335 14.7609 26.3346C14.4275 26.8088 14.0947 27.2856 13.7581 27.7561C13.7405 27.7808 13.7134 27.8969 13.6593 27.7739C13.7021 27.7371 13.6832 27.6876 13.6832 27.647C13.6836 25.9351 13.6834 24.2238 13.6826 22.5132Z" fill="white"/>
<path d="M13.6822 22.5135C13.6822 24.2242 13.6822 25.9344 13.6822 27.6442C13.6822 27.6879 13.7011 27.7374 13.6583 27.771C13.5684 27.7165 13.5294 27.6188 13.4696 27.5383C11.427 24.6386 9.38547 21.7385 7.34499 18.8379C7.3192 18.8012 7.29529 18.7619 7.26886 18.7213C7.32171 18.6902 7.35002 18.7327 7.38085 18.7511C9.4465 19.9803 11.5117 21.2105 13.5765 22.4419C13.6149 22.4659 13.6476 22.4907 13.6822 22.5135Z" fill="white"/>
<path d="M13.6978 6.64335L13.6827 6.61989C13.7103 6.60214 13.7066 6.62814 13.711 6.64145L13.6978 6.64335Z" fill="white"/>
</svg>
