<svg width="136" height="23" viewBox="0 0 136 23" fill="none" xmlns="http://www.w3.org/2000/svg">
<path fill-rule="evenodd" clip-rule="evenodd" d="M4.25432 2.85133C6.79939 5.33177 7.1318 5.7037 7.12902 6.06849C7.12638 6.4309 6.74864 6.85081 4.018 9.52633C1.39614 12.0953 0.854105 12.6923 0.552756 13.3433C-0.845077 16.3624 1.38728 19.7979 4.74692 19.7979C5.66154 19.7979 6.60603 19.5098 7.36614 18.999C7.79463 18.7111 9.66299 16.8909 18.5804 8.07351C22.6227 4.07668 22.999 3.73952 23.4172 3.73952C23.9612 3.73952 24.3081 4.07298 24.3081 4.59598C24.3081 4.9087 23.744 5.52646 20.8182 8.41848C16.9965 12.1958 16.9066 12.3207 16.9066 13.8529C16.9066 15.0738 17.4164 15.836 19.6675 17.9809L21.6442 19.8643H24.0776C25.416 19.8643 26.5556 19.8198 26.61 19.7652C26.6646 19.7107 25.424 18.4172 23.8535 16.8905C21.6467 14.7456 20.9984 14.0411 21.0008 13.7901C21.0031 13.545 21.7913 12.672 24.2231 10.2215C27.9283 6.488 27.9444 6.46315 27.9406 4.46645C27.9387 3.47333 27.8865 3.17872 27.6251 2.68215C26.2777 0.123336 23.1884 -0.742908 20.9029 0.797273C20.4353 1.1125 17.4174 4.03346 7.41676 13.8504C6.23185 15.0136 5.15916 16.0132 5.03307 16.0719C4.4342 16.3504 3.69378 15.5807 3.94517 14.941C4.00941 14.7773 5.52064 13.2301 7.30349 11.5025C10.9802 7.93963 11.2563 7.56043 11.2563 6.07378C11.2563 4.66933 10.9645 4.20819 8.67409 1.99275L6.66339 0.0478673L4.01998 0.0472064L1.37657 0.0466777L4.25432 2.85133ZM32.6499 2.46579C32.5418 2.59611 32.51 4.68705 32.5347 10.0325L32.5688 17.4191L37.6904 17.4538L42.812 17.4883V16.1651V14.8418H39.0451H35.2783V8.72234C35.2783 4.13894 35.2385 2.56307 35.1197 2.44425C34.8892 2.21374 32.8443 2.23159 32.6499 2.46579ZM101.263 9.9087L101.297 17.4191L102.123 17.4585L102.949 17.4978V14.5177V11.5376H105.235C108.974 11.5376 110.333 10.9715 111.26 9.02633C111.565 8.3861 111.606 8.14171 111.598 6.97769C111.587 5.36402 111.329 4.69167 110.354 3.74269C109.179 2.5977 108.753 2.50002 104.7 2.44517L101.229 2.39838L101.263 9.9087ZM75.2586 4.05699C70.6213 4.93434 68.2976 10.3369 70.7619 14.5114C72.9525 18.2221 78.3018 18.8492 81.4241 15.7615C82.7191 14.4809 83.3851 12.8219 83.3851 10.8767C83.3851 8.97505 82.8257 7.47491 81.6274 6.16233C79.9908 4.3701 77.6658 3.60153 75.2586 4.05699ZM103.049 3.94557C102.994 4.00187 102.949 5.37618 102.949 6.99976V9.95152L105.229 9.95073C106.491 9.95033 107.745 9.88451 108.038 9.80336C108.727 9.61198 109.615 8.72419 109.806 8.03466C110.253 6.42627 109.639 4.91702 108.273 4.26278C107.712 3.99394 107.392 3.9539 105.395 3.90182C104.159 3.86957 103.103 3.88927 103.049 3.94557ZM88.8072 4.24586C87.7047 4.61197 87.3466 4.83706 86.5841 5.64317C85.2073 7.09902 84.9766 8.26146 84.9752 13.7514L84.9743 17.4852H86.296H87.6177L87.6249 13.9497C87.634 9.43104 87.7244 8.5188 88.2351 7.79133C88.8321 6.94095 89.5897 6.58224 90.7898 6.58171C92.636 6.58078 93.7194 7.46209 93.9655 9.16484C94.0333 9.63392 94.09 11.7 94.0914 13.7562L94.0941 17.4947L95.3827 17.4569L96.6714 17.4191L96.7065 13.8147C96.7602 8.31565 96.441 6.8516 94.8717 5.39865C93.7772 4.3853 92.9743 4.101 91.0541 4.04721C89.8509 4.01337 89.3827 4.05487 88.8072 4.24586ZM116.698 4.21573C114.894 4.70053 113.511 6.1199 113.363 7.63854L113.325 8.03505L114.217 8.07417C115.099 8.11277 115.109 8.10946 115.109 7.77018C115.109 7.04047 115.822 6.2 116.81 5.76569C117.478 5.47201 119.24 5.47623 119.932 5.77296C121.079 6.26542 121.464 6.91782 121.556 8.52633L121.622 9.68718L119.588 9.68916C117.368 9.69128 116.328 9.86323 115.258 10.4058C114.342 10.8697 113.896 11.2856 113.451 12.0883C113.11 12.7042 113.061 12.9265 113.061 13.8505C113.061 14.7755 113.11 14.9965 113.453 15.6158C114.209 16.9807 115.447 17.6321 117.296 17.6372C118.893 17.6417 120.244 17.1597 121.216 16.2383L121.574 15.8996L121.654 16.395C121.822 17.4288 121.883 17.4852 122.838 17.4852C123.312 17.4852 123.7 17.4296 123.7 17.3617C123.7 17.2937 123.631 17.0706 123.546 16.866C123.445 16.621 123.365 14.8924 123.311 11.8019C123.236 7.44029 123.211 7.06796 122.957 6.51509C122.395 5.28855 121.417 4.51285 120.019 4.18361C119.052 3.95614 117.612 3.97015 116.698 4.21573ZM44.0381 8.53069C44.0899 11.8782 44.1506 12.9752 44.3207 13.6408C44.7666 15.3868 45.6892 16.5151 47.2846 17.2661C48.1316 17.6647 48.2298 17.6802 49.8831 17.6773C51.3585 17.6746 51.7086 17.6315 52.3609 17.3721C53.3167 16.992 54.4821 15.9412 54.9338 15.0522C55.6154 13.7108 55.6595 13.3562 55.7286 8.66286L55.7933 4.2682H54.4574H53.1213L53.1186 8.00201C53.1156 12.3401 53.0238 13.2215 52.4985 13.9692C51.6562 15.1676 49.7181 15.5472 48.2647 14.7986C46.8194 14.0542 46.6514 13.3412 46.6476 7.93592L46.6449 4.2682H45.3085H43.9722L44.0381 8.53069ZM57.4321 4.43341C57.5085 4.56347 61.3103 9.86204 61.724 10.415C61.7787 10.4881 61.5404 10.9342 61.1944 11.4063C59.3187 13.9649 57.0597 17.1367 56.9973 17.2991C56.9385 17.4526 57.1933 17.4852 58.4475 17.4852H59.9691L60.6214 16.5931C60.9801 16.1023 61.7538 15.0318 62.3408 14.214L63.4078 12.727L65.1135 15.0731L66.8191 17.4191L68.363 17.4564C69.2319 17.4773 69.9069 17.441 69.9069 17.3731C69.9069 17.3068 68.9393 15.9221 67.7565 14.296C66.5738 12.6697 65.4723 11.1499 65.3085 10.9185L65.011 10.4977L66.4258 8.53941C68.9481 5.0484 69.3782 4.43777 69.3782 4.34803C69.3782 4.29952 68.6834 4.27652 67.8341 4.29701L66.29 4.33428L64.8933 6.27679C64.1251 7.34512 63.462 8.22247 63.4197 8.2263C63.3773 8.23013 62.6963 7.34116 61.9062 6.25075L60.4697 4.2682H58.9024C57.685 4.2682 57.3568 4.30507 57.4321 4.43341ZM124.229 4.33085C124.229 4.38107 126.104 9.32821 128.795 16.3765L129.103 17.1841L128.641 18.4373C127.903 20.439 127.224 21.0538 125.753 21.0538H125.022V21.7666C125.022 22.6026 125.077 22.6412 126.255 22.637C127.234 22.6335 127.962 22.3348 128.637 21.6594C129.249 21.0475 129.605 20.3391 130.448 18.0598C130.821 17.0532 131.335 15.6646 131.592 14.974C131.849 14.2834 132.315 13.0047 132.627 12.1323C132.94 11.26 133.706 9.15995 134.329 7.46553C134.953 5.77111 135.463 4.35847 135.463 4.32649C135.463 4.29437 135.053 4.2682 134.551 4.2682C133.642 4.2682 133.638 4.26952 133.485 4.69775C133.4 4.93407 132.62 7.17925 131.75 9.68718C130.881 12.1951 130.123 14.3606 130.066 14.4994C129.988 14.6893 129.761 14.2148 129.151 12.5829C128.441 10.6853 126.303 4.88861 126.145 4.43341C126.106 4.32239 125.783 4.2682 125.158 4.2682C124.647 4.2682 124.229 4.29635 124.229 4.33085ZM75.2376 6.75168C73.4284 7.39826 72.418 8.91266 72.4183 10.9773C72.4183 11.8326 72.4806 12.1301 72.799 12.7932C73.5627 14.3839 74.8142 15.1692 76.5815 15.167C77.8721 15.1652 78.7287 14.8279 79.5243 14.0081C82.1511 11.3007 80.5006 6.7752 76.8076 6.55937C76.1716 6.52223 75.7274 6.57668 75.2376 6.75168ZM117.554 11.1946C116.493 11.4086 115.869 11.7268 115.32 12.3339C114.114 13.6685 114.907 15.6318 116.817 16.0414C118.095 16.3155 119.863 15.7656 120.739 14.8205C121.542 13.956 121.585 13.8291 121.585 12.3672V11.0089L119.966 11.0218C119.076 11.029 117.99 11.1067 117.554 11.1946Z" fill="white"/>
</svg>
