<svg width="109" height="24" viewBox="0 0 109 24" fill="none" xmlns="http://www.w3.org/2000/svg">
<path d="M107.942 15.5006C108.008 15.5003 108.073 15.5133 108.133 15.5389C108.192 15.5638 108.245 15.5995 108.29 15.6442C108.334 15.688 108.37 15.74 108.395 15.7973C108.421 15.8568 108.434 15.9208 108.434 15.9856C108.434 16.0503 108.421 16.1144 108.395 16.1738C108.37 16.2311 108.334 16.2831 108.29 16.327C108.245 16.3715 108.192 16.4072 108.133 16.4323C108.073 16.458 108.008 16.4711 107.942 16.4706C107.845 16.4718 107.749 16.4443 107.667 16.3915C107.586 16.3387 107.521 16.263 107.482 16.1738C107.457 16.1143 107.444 16.0503 107.444 15.9856C107.444 15.9209 107.457 15.8568 107.482 15.7973C107.532 15.6802 107.626 15.5873 107.744 15.5389C107.807 15.5128 107.874 15.4998 107.942 15.5006ZM107.942 16.3621C107.992 16.3629 108.042 16.3531 108.089 16.3334C108.133 16.3143 108.173 16.2873 108.207 16.2536C108.278 16.1824 108.317 16.086 108.317 15.9856C108.317 15.8851 108.278 15.7887 108.207 15.7175C108.173 15.6837 108.133 15.6566 108.089 15.6378C108.042 15.6182 107.992 15.6085 107.942 15.6091C107.89 15.6084 107.839 15.6182 107.792 15.6378C107.735 15.6621 107.685 15.6999 107.646 15.748C107.607 15.7961 107.58 15.8529 107.568 15.9136C107.557 15.9743 107.56 16.037 107.577 16.0963C107.595 16.1555 107.627 16.2095 107.671 16.2536C107.706 16.2877 107.747 16.3148 107.792 16.3334C107.839 16.3531 107.89 16.3628 107.942 16.3621ZM107.971 15.7558C108.018 15.7525 108.066 15.766 108.105 15.7941C108.12 15.8067 108.133 15.8227 108.141 15.841C108.149 15.8593 108.153 15.8793 108.152 15.8994C108.153 15.9167 108.15 15.9339 108.143 15.9498C108.137 15.9658 108.127 15.9801 108.114 15.9919C108.085 16.018 108.048 16.0337 108.009 16.0366L108.156 16.2057H108.041L107.904 16.0366H107.859V16.2057H107.763V15.7558H107.971ZM107.859 15.8388V15.96H107.971C107.99 15.9658 108.011 15.9658 108.031 15.96C108.038 15.9551 108.044 15.9484 108.048 15.9406C108.052 15.9328 108.054 15.9241 108.054 15.9154C108.054 15.9066 108.052 15.8979 108.048 15.8901C108.044 15.8823 108.038 15.8756 108.031 15.8707C108.011 15.8649 107.99 15.8649 107.971 15.8707L107.859 15.8388ZM57.5923 16.2025V11.4165C57.5923 9.6105 56.4405 8.39484 54.5867 8.37889C54.0587 8.34475 53.5312 8.45285 53.0593 8.69192C52.5873 8.93099 52.1881 9.29228 51.9033 9.73813C51.6437 9.30551 51.2723 8.95091 50.8281 8.7117C50.3839 8.47248 49.8834 8.35751 49.3794 8.37889C48.9405 8.35769 48.5036 8.45131 48.1119 8.65051C47.7203 8.84971 47.3873 9.1476 47.1459 9.51478V8.55757H45.4835V16.1962H47.1618V11.9716C47.1618 10.6443 47.8957 9.94234 49.0316 9.94234C50.1675 9.94234 50.694 10.6603 50.694 11.9557V16.2057H52.3755V11.9716C52.3755 10.6443 53.1412 9.94234 54.2452 9.94234C55.3492 9.94234 55.9236 10.6603 55.9236 11.9557V16.2057L57.5923 16.2025ZM66.9571 8.5448H65.2947V9.4733C65.0113 9.10757 64.6444 8.81504 64.2247 8.6202C63.805 8.42535 63.3448 8.33385 62.8825 8.35335C60.7416 8.35335 59.0537 10.0317 59.0537 12.3641C59.0537 14.6965 60.732 16.3748 62.8825 16.3748C63.3448 16.3943 63.805 16.3029 64.2247 16.108C64.6444 15.9132 65.0113 15.6206 65.2947 15.2549V16.1802H66.9571V8.5448ZM60.7735 12.3737C60.7735 11.0304 61.6509 9.92957 63.0899 9.92957C64.4651 9.92957 65.3904 10.9857 65.3904 12.3737C65.3904 13.7616 64.4651 14.8178 63.0899 14.8178C61.6509 14.8305 60.7703 13.7297 60.7703 12.3864L60.7735 12.3737ZM102.521 8.35335C103.083 8.35157 103.64 8.45997 104.161 8.67243C104.647 8.86615 105.09 9.15343 105.466 9.51798C105.836 9.88141 106.129 10.3154 106.327 10.7943C106.742 11.8173 106.742 12.9619 106.327 13.985C106.129 14.4639 105.836 14.8979 105.466 15.2613C105.09 15.6258 104.647 15.9131 104.161 16.1068C103.106 16.5168 101.936 16.5168 100.881 16.1068C100.395 15.9138 99.9528 15.6264 99.579 15.2613C99.2112 14.8969 98.9194 14.4631 98.7207 13.985C98.306 12.9618 98.306 11.8174 98.7207 10.7943C98.9195 10.3162 99.2112 9.88236 99.579 9.51798C99.9528 9.15287 100.395 8.86547 100.881 8.67243C101.402 8.46434 101.959 8.36028 102.521 8.36612V8.35335ZM102.521 9.92639C102.193 9.92217 101.868 9.9829 101.564 10.1051C101.28 10.2186 101.023 10.3891 100.807 10.606C100.59 10.8284 100.418 11.092 100.303 11.3814C100.058 12.0213 100.058 12.7292 100.303 13.3692C100.419 13.6574 100.59 13.9199 100.807 14.1413C101.023 14.3598 101.282 14.5314 101.567 14.6455C102.177 14.8847 102.855 14.8847 103.465 14.6455C103.751 14.5304 104.01 14.3589 104.228 14.1413C104.447 13.9206 104.62 13.658 104.735 13.3692C104.98 12.7292 104.98 12.0213 104.735 11.3814C104.62 11.0914 104.447 10.8277 104.228 10.606C104.01 10.3896 103.751 10.2192 103.465 10.1051C103.164 9.9889 102.843 9.93254 102.521 9.93915V9.92639ZM75.9868 12.3864C75.9868 10.0062 74.4999 8.37569 72.359 8.37569C70.1255 8.37569 68.5556 10.0062 68.5556 12.3864C68.5556 14.8146 70.1861 16.3972 72.4707 16.3972C73.6114 16.4371 74.7268 16.0555 75.6039 15.3251L74.7903 14.0935C74.1557 14.6012 73.3695 14.882 72.5568 14.8912C71.4847 14.8912 70.5115 14.3966 70.2722 13.0214H75.9453C75.9868 12.8172 75.9868 12.6098 75.9868 12.3864ZM70.2978 11.7164C70.4733 10.6124 71.1433 9.86257 72.3271 9.86257C73.3991 9.86257 74.0852 10.5326 74.2606 11.7164H70.2978ZM83.6988 9.1638C82.7576 8.60464 81.6755 8.32775 80.5815 8.36612C78.6479 8.36612 77.3907 9.29143 77.3907 10.8102C77.3907 12.0578 78.3161 12.8236 80.0263 13.0629L80.808 13.1745C81.7174 13.3022 82.1513 13.5415 82.1513 13.9722C82.1513 14.5625 81.5451 14.8975 80.4092 14.8975C79.4928 14.9266 78.5934 14.6456 77.8566 14.0999L77.0749 15.3953C78.0429 16.0721 79.2029 16.42 80.3836 16.3876C82.5884 16.3876 83.8679 15.3474 83.8679 13.8956C83.8679 12.5524 82.8596 11.8504 81.2005 11.6111L80.4187 11.4994C79.7008 11.4037 79.1233 11.2601 79.1233 10.7496C79.1233 10.1912 79.6657 9.853 80.5783 9.853C81.4315 9.86008 82.2682 10.0888 83.0064 10.5167L83.6988 9.1638ZM90.9673 8.55757H88.252V6.2411H86.5736V8.55757H85.023V10.0764H86.5736V13.5606C86.5736 15.3347 87.2596 16.3908 89.2251 16.3908C89.9592 16.3932 90.6791 16.1886 91.3023 15.8005L90.8237 14.3774C90.3777 14.6431 89.8716 14.7913 89.3528 14.8082C88.5232 14.8082 88.2488 14.2977 88.2488 13.5319V10.0859H90.9832L90.9673 8.55757ZM96.7106 8.36612C96.3052 8.35431 95.9042 8.45212 95.5499 8.64923C95.1955 8.84635 94.901 9.13546 94.6972 9.48607V8.55757H93.0508V16.1962H94.7132V11.9238C94.7132 10.6475 95.2556 9.95829 96.3436 9.95829C96.6996 9.95306 97.0531 10.0181 97.3838 10.1497L97.8943 8.58309C97.5144 8.44721 97.1141 8.37707 96.7106 8.37569V8.36612Z" fill="white"/>
<path d="M107.942 15.5006C108.008 15.5003 108.073 15.5133 108.133 15.5389C108.192 15.5638 108.245 15.5995 108.29 15.6442C108.334 15.688 108.37 15.74 108.395 15.7973C108.421 15.8568 108.434 15.9208 108.434 15.9856C108.434 16.0503 108.421 16.1144 108.395 16.1738C108.37 16.2311 108.334 16.2831 108.29 16.327C108.245 16.3715 108.192 16.4072 108.133 16.4323C108.073 16.458 108.008 16.4711 107.942 16.4706C107.845 16.4718 107.749 16.4443 107.667 16.3915C107.586 16.3387 107.521 16.263 107.482 16.1738C107.457 16.1143 107.444 16.0503 107.444 15.9856C107.444 15.9209 107.457 15.8568 107.482 15.7973C107.532 15.6802 107.626 15.5873 107.744 15.5389C107.807 15.5128 107.874 15.4998 107.942 15.5006ZM107.942 16.3621C107.992 16.3629 108.042 16.3531 108.089 16.3334C108.133 16.3143 108.173 16.2873 108.207 16.2536C108.278 16.1824 108.317 16.086 108.317 15.9856C108.317 15.8851 108.278 15.7887 108.207 15.7175C108.173 15.6837 108.133 15.6566 108.089 15.6378C108.042 15.6182 107.992 15.6085 107.942 15.6091C107.89 15.6084 107.839 15.6182 107.792 15.6378C107.735 15.6621 107.685 15.6999 107.646 15.748C107.607 15.7961 107.58 15.8529 107.568 15.9136C107.557 15.9743 107.56 16.037 107.577 16.0963C107.595 16.1555 107.627 16.2095 107.671 16.2536C107.706 16.2877 107.747 16.3148 107.792 16.3334C107.839 16.3531 107.89 16.3628 107.942 16.3621ZM107.971 15.7558C108.018 15.7525 108.066 15.766 108.105 15.7941C108.12 15.8067 108.133 15.8227 108.141 15.841C108.149 15.8593 108.153 15.8793 108.152 15.8994C108.153 15.9167 108.15 15.9339 108.143 15.9498C108.137 15.9658 108.127 15.9801 108.114 15.9919C108.085 16.018 108.048 16.0337 108.009 16.0366L108.156 16.2057H108.041L107.904 16.0366H107.859V16.2057H107.763V15.7558H107.971ZM107.859 15.8388V15.96H107.971C107.99 15.9658 108.011 15.9658 108.031 15.96C108.038 15.9551 108.044 15.9484 108.048 15.9406C108.052 15.9328 108.054 15.9241 108.054 15.9154C108.054 15.9066 108.052 15.8979 108.048 15.8901C108.044 15.8823 108.038 15.8756 108.031 15.8707C108.011 15.8649 107.99 15.8649 107.971 15.8707L107.859 15.8388ZM57.5923 16.2025V11.4165C57.5923 9.6105 56.4405 8.39484 54.5867 8.37889C54.0587 8.34475 53.5312 8.45285 53.0593 8.69192C52.5873 8.93099 52.1881 9.29228 51.9033 9.73813C51.6437 9.30551 51.2723 8.95091 50.8281 8.7117C50.3839 8.47248 49.8834 8.35751 49.3794 8.37889C48.9405 8.35769 48.5036 8.45131 48.1119 8.65051C47.7203 8.84971 47.3873 9.1476 47.1459 9.51478V8.55757H45.4835V16.1962H47.1618V11.9716C47.1618 10.6443 47.8957 9.94234 49.0316 9.94234C50.1675 9.94234 50.694 10.6603 50.694 11.9557V16.2057H52.3755V11.9716C52.3755 10.6443 53.1412 9.94234 54.2452 9.94234C55.3492 9.94234 55.9236 10.6603 55.9236 11.9557V16.2057L57.5923 16.2025ZM66.9571 8.5448H65.2947V9.4733C65.0113 9.10757 64.6444 8.81504 64.2247 8.6202C63.805 8.42535 63.3448 8.33385 62.8825 8.35335C60.7416 8.35335 59.0537 10.0317 59.0537 12.3641C59.0537 14.6965 60.732 16.3748 62.8825 16.3748C63.3448 16.3943 63.805 16.3029 64.2247 16.108C64.6444 15.9132 65.0113 15.6206 65.2947 15.2549V16.1802H66.9571V8.5448ZM60.7735 12.3737C60.7735 11.0304 61.6509 9.92957 63.0899 9.92957C64.4651 9.92957 65.3904 10.9857 65.3904 12.3737C65.3904 13.7616 64.4651 14.8178 63.0899 14.8178C61.6509 14.8305 60.7703 13.7297 60.7703 12.3864L60.7735 12.3737ZM102.521 8.35335C103.083 8.35157 103.64 8.45997 104.161 8.67243C104.647 8.86615 105.09 9.15343 105.466 9.51798C105.836 9.88141 106.129 10.3154 106.327 10.7943C106.742 11.8173 106.742 12.9619 106.327 13.985C106.129 14.4639 105.836 14.8979 105.466 15.2613C105.09 15.6258 104.647 15.9131 104.161 16.1068C103.106 16.5168 101.936 16.5168 100.881 16.1068C100.395 15.9138 99.9528 15.6264 99.579 15.2613C99.2112 14.8969 98.9194 14.4631 98.7207 13.985C98.306 12.9618 98.306 11.8174 98.7207 10.7943C98.9195 10.3162 99.2112 9.88236 99.579 9.51798C99.9528 9.15287 100.395 8.86547 100.881 8.67243C101.402 8.46434 101.959 8.36028 102.521 8.36612V8.35335ZM102.521 9.92639C102.193 9.92217 101.868 9.9829 101.564 10.1051C101.28 10.2186 101.023 10.3891 100.807 10.606C100.59 10.8284 100.418 11.092 100.303 11.3814C100.058 12.0213 100.058 12.7292 100.303 13.3692C100.419 13.6574 100.59 13.9199 100.807 14.1413C101.023 14.3598 101.282 14.5314 101.567 14.6455C102.177 14.8847 102.855 14.8847 103.465 14.6455C103.751 14.5304 104.01 14.3589 104.228 14.1413C104.447 13.9206 104.62 13.658 104.735 13.3692C104.98 12.7292 104.98 12.0213 104.735 11.3814C104.62 11.0914 104.447 10.8277 104.228 10.606C104.01 10.3896 103.751 10.2192 103.465 10.1051C103.164 9.9889 102.843 9.93254 102.521 9.93915V9.92639ZM75.9868 12.3864C75.9868 10.0062 74.4999 8.37569 72.359 8.37569C70.1255 8.37569 68.5556 10.0062 68.5556 12.3864C68.5556 14.8146 70.1861 16.3972 72.4707 16.3972C73.6114 16.4371 74.7268 16.0555 75.6039 15.3251L74.7903 14.0935C74.1557 14.6012 73.3695 14.882 72.5568 14.8912C71.4847 14.8912 70.5115 14.3966 70.2722 13.0214H75.9453C75.9868 12.8172 75.9868 12.6098 75.9868 12.3864ZM70.2978 11.7164C70.4733 10.6124 71.1433 9.86257 72.3271 9.86257C73.3991 9.86257 74.0852 10.5326 74.2606 11.7164H70.2978ZM83.6988 9.1638C82.7576 8.60464 81.6755 8.32775 80.5815 8.36612C78.6479 8.36612 77.3907 9.29143 77.3907 10.8102C77.3907 12.0578 78.3161 12.8236 80.0263 13.0629L80.808 13.1745C81.7174 13.3022 82.1513 13.5415 82.1513 13.9722C82.1513 14.5625 81.5451 14.8975 80.4092 14.8975C79.4928 14.9266 78.5934 14.6456 77.8566 14.0999L77.0749 15.3953C78.0429 16.0721 79.2029 16.42 80.3836 16.3876C82.5884 16.3876 83.8679 15.3474 83.8679 13.8956C83.8679 12.5524 82.8596 11.8504 81.2005 11.6111L80.4187 11.4994C79.7008 11.4037 79.1233 11.2601 79.1233 10.7496C79.1233 10.1912 79.6657 9.853 80.5783 9.853C81.4315 9.86008 82.2682 10.0888 83.0064 10.5167L83.6988 9.1638ZM90.9673 8.55757H88.252V6.2411H86.5736V8.55757H85.023V10.0764H86.5736V13.5606C86.5736 15.3347 87.2596 16.3908 89.2251 16.3908C89.9592 16.3932 90.6791 16.1886 91.3023 15.8005L90.8237 14.3774C90.3777 14.6431 89.8716 14.7913 89.3528 14.8082C88.5232 14.8082 88.2488 14.2977 88.2488 13.5319V10.0859H90.9832L90.9673 8.55757ZM96.7106 8.36612C96.3052 8.35431 95.9042 8.45212 95.5499 8.64923C95.1955 8.84635 94.901 9.13546 94.6972 9.48607V8.55757H93.0508V16.1962H94.7132V11.9238C94.7132 10.6475 95.2556 9.95829 96.3436 9.95829C96.6996 9.95306 97.0531 10.0181 97.3838 10.1497L97.8943 8.58309C97.5144 8.44721 97.1141 8.37707 96.7106 8.37569V8.36612Z" fill="url(#paint0_linear_61_69)"/>
<path d="M14.8655 12.3356C14.8641 10.5963 15.2584 8.87954 16.0185 7.31514C16.7786 5.75074 17.8845 4.37974 19.2527 3.30588C17.5582 1.97414 15.5231 1.14601 13.3802 0.916137C11.2372 0.686265 9.07286 1.06392 7.1344 2.00595C5.19594 2.94797 3.56162 4.41637 2.41821 6.2433C1.27481 8.07022 0.668457 10.182 0.668457 12.3372C0.668457 14.4925 1.27481 16.6042 2.41821 18.4311C3.56162 20.2581 5.19594 21.7264 7.1344 22.6685C9.07286 23.6105 11.2372 23.9882 13.3802 23.7583C15.5231 23.5284 17.5582 22.7003 19.2527 21.3686C17.8841 20.2944 16.7779 18.9228 16.0178 17.3579C15.2577 15.7929 14.8636 14.0754 14.8655 12.3356Z" fill="white"/>
<path d="M14.8655 12.3356C14.8641 10.5963 15.2584 8.87954 16.0185 7.31514C16.7786 5.75074 17.8845 4.37974 19.2527 3.30588C17.5582 1.97414 15.5231 1.14601 13.3802 0.916137C11.2372 0.686265 9.07286 1.06392 7.1344 2.00595C5.19594 2.94797 3.56162 4.41637 2.41821 6.2433C1.27481 8.07022 0.668457 10.182 0.668457 12.3372C0.668457 14.4925 1.27481 16.6042 2.41821 18.4311C3.56162 20.2581 5.19594 21.7264 7.1344 22.6685C9.07286 23.6105 11.2372 23.9882 13.3802 23.7583C15.5231 23.5284 17.5582 22.7003 19.2527 21.3686C17.8841 20.2944 16.7779 18.9228 16.0178 17.3579C15.2577 15.7929 14.8636 14.0754 14.8655 12.3356Z" fill="url(#paint1_linear_61_69)"/>
<path d="M36.7412 19.4539V19.0838H36.8912V19.0072H36.5115V19.0838H36.6614V19.4539H36.7412ZM37.4783 19.4539V19.0072H37.3634L37.2294 19.3263L37.0954 19.0072H36.9773V19.4539H37.0603V19.1189L37.1847 19.4093H37.2709L37.3953 19.1189V19.4571L37.4783 19.4539Z" fill="white"/>
<path d="M36.7412 19.4539V19.0838H36.8912V19.0072H36.5115V19.0838H36.6614V19.4539H36.7412ZM37.4783 19.4539V19.0072H37.3634L37.2294 19.3263L37.0954 19.0072H36.9773V19.4539H37.0603V19.1189L37.1847 19.4093H37.2709L37.3953 19.1189V19.4571L37.4783 19.4539Z" fill="url(#paint2_linear_61_69)"/>
<path d="M37.8356 12.3355C37.8356 14.4909 37.2291 16.6028 36.0855 18.4298C34.9419 20.2568 33.3073 21.7251 31.3686 22.667C29.4299 23.6089 27.2653 23.9863 25.1222 23.7561C22.9792 23.5259 20.9441 22.6974 19.2497 21.3652C20.6173 20.2904 21.723 18.919 22.4833 17.3545C23.2436 15.7901 23.6386 14.0733 23.6386 12.3339C23.6386 10.5944 23.2436 8.87772 22.4833 7.31323C21.723 5.74874 20.6173 4.37736 19.2497 3.30255C20.9443 1.97022 22.9797 1.14165 25.123 0.911568C27.2664 0.681486 29.4312 1.05919 31.37 2.00147C33.3088 2.94375 34.9434 4.41258 36.0868 6.24004C37.2301 8.0675 37.8362 10.1798 37.8356 12.3355Z" fill="white"/>
<path d="M37.8356 12.3355C37.8356 14.4909 37.2291 16.6028 36.0855 18.4298C34.9419 20.2568 33.3073 21.7251 31.3686 22.667C29.4299 23.6089 27.2653 23.9863 25.1222 23.7561C22.9792 23.5259 20.9441 22.6974 19.2497 21.3652C20.6173 20.2904 21.723 18.919 22.4833 17.3545C23.2436 15.7901 23.6386 14.0733 23.6386 12.3339C23.6386 10.5944 23.2436 8.87772 22.4833 7.31323C21.723 5.74874 20.6173 4.37736 19.2497 3.30255C20.9443 1.97022 22.9797 1.14165 25.123 0.911568C27.2664 0.681486 29.4312 1.05919 31.37 2.00147C33.3088 2.94375 34.9434 4.41258 36.0868 6.24004C37.2301 8.0675 37.8362 10.1798 37.8356 12.3355Z" fill="url(#paint3_linear_61_69)"/>
<defs>
<linearGradient id="paint0_linear_61_69" x1="54.5512" y1="0.845947" x2="54.5512" y2="23.8238" gradientUnits="userSpaceOnUse">
<stop stop-color="white"/>
<stop offset="1" stop-color="white" stop-opacity="0"/>
</linearGradient>
<linearGradient id="paint1_linear_61_69" x1="54.5512" y1="0.845947" x2="54.5512" y2="23.8238" gradientUnits="userSpaceOnUse">
<stop stop-color="white"/>
<stop offset="1" stop-color="white" stop-opacity="0"/>
</linearGradient>
<linearGradient id="paint2_linear_61_69" x1="54.5512" y1="0.845947" x2="54.5512" y2="23.8238" gradientUnits="userSpaceOnUse">
<stop stop-color="white"/>
<stop offset="1" stop-color="white" stop-opacity="0"/>
</linearGradient>
<linearGradient id="paint3_linear_61_69" x1="54.5512" y1="0.845947" x2="54.5512" y2="23.8238" gradientUnits="userSpaceOnUse">
<stop stop-color="white"/>
<stop offset="1" stop-color="white" stop-opacity="0"/>
</linearGradient>
</defs>
</svg>
