<svg width="126" height="23" viewBox="0 0 126 23" fill="none" xmlns="http://www.w3.org/2000/svg">
<path d="M55.6861 15.1916V10.5068C55.6861 8.71267 54.5897 7.54147 52.7207 7.54147C51.7738 7.54147 50.777 7.86542 50.0544 8.86219C49.5062 8.01494 48.7337 7.54147 47.5625 7.54147C46.79 7.54147 45.9926 7.76575 45.3696 8.63792V7.69099H43.7499V15.1916H45.3945V11.0551C45.3945 9.73435 46.0923 9.11138 47.1887 9.11138C48.2851 9.11138 48.8333 9.80911 48.8333 11.0551V15.1916H50.478V11.0551C50.478 9.73435 51.2505 9.11138 52.2722 9.11138C53.3686 9.11138 53.9168 9.80911 53.9168 11.0551V15.1916H55.6861ZM79.9822 7.69099H77.3158V5.42335H75.6712V7.69099H74.176V9.18613H75.6712V12.625C75.6712 14.3444 76.3689 15.3661 78.2379 15.3661C78.9356 15.3661 79.733 15.1418 80.2563 14.8178L79.7828 13.4224C79.3094 13.7463 78.7612 13.8211 78.3874 13.8211C77.6149 13.8211 77.2909 13.3476 77.2909 12.5751V9.21105H79.9573V7.69099H79.9822ZM93.8621 7.54147C92.9152 7.54147 92.2922 8.01494 91.9184 8.63792V7.69099H90.2738V15.1916H91.9184V10.9803C91.9184 9.73435 92.4667 9.03662 93.4883 9.03662C93.8123 9.03662 94.1861 9.11137 94.51 9.18613L94.9835 7.61623C94.6595 7.54147 94.1861 7.54147 93.8621 7.54147ZM72.8553 8.31396C72.0828 7.76574 70.9864 7.54147 69.8152 7.54147C67.9463 7.54147 66.7003 8.4884 66.7003 9.95862C66.7003 11.2046 67.6472 11.9023 69.267 12.1515L70.0395 12.2263C70.8867 12.3758 71.3602 12.625 71.3602 12.9988C71.3602 13.547 70.7372 13.9457 69.6408 13.9457C68.5443 13.9457 67.6971 13.547 67.1489 13.1732L66.3764 14.4191C67.2236 15.0421 68.3948 15.3661 69.566 15.3661C71.7589 15.3661 73.0049 14.3444 73.0049 12.9489C73.0049 11.6282 71.9832 10.9305 70.4382 10.6813L69.6657 10.6065C68.968 10.5318 68.4197 10.3822 68.4197 9.90878C68.4197 9.36056 68.968 9.06153 69.8152 9.06153C70.7621 9.06153 71.6841 9.46024 72.1576 9.68451L72.8553 8.31396ZM116.439 7.54147C115.492 7.54147 114.869 8.01494 114.495 8.63792V7.69099H112.85V15.1916H114.495V10.9803C114.495 9.73435 115.043 9.03662 116.065 9.03662C116.389 9.03662 116.763 9.11137 117.087 9.18613L117.56 7.61623C117.211 7.54147 116.738 7.54147 116.439 7.54147ZM95.5068 11.4288C95.5068 13.6965 97.0767 15.3411 99.4938 15.3411C100.59 15.3411 101.363 15.1169 102.16 14.4939L101.388 13.1732C100.765 13.6466 100.142 13.8709 99.444 13.8709C98.1233 13.8709 97.1764 12.924 97.1764 11.4538C97.1764 10.0583 98.1233 9.11137 99.444 9.03662C100.142 9.03662 100.765 9.26089 101.388 9.73435L102.16 8.41364C101.388 7.79066 100.59 7.56639 99.4938 7.56639C97.0767 7.54147 95.5068 9.18613 95.5068 11.4288ZM110.658 7.69099H109.013V8.63792C108.465 7.94018 107.692 7.54147 106.671 7.54147C104.552 7.54147 102.933 9.18613 102.933 11.4538C102.933 13.7214 104.577 15.3661 106.671 15.3661C107.767 15.3661 108.539 14.9674 109.013 14.2696V15.2166H110.658V7.69099ZM104.652 11.4288C104.652 10.1081 105.499 9.0117 106.92 9.0117C108.24 9.0117 109.187 10.0334 109.187 11.4288C109.187 12.7496 108.24 13.846 106.92 13.846C105.499 13.7712 104.652 12.7745 104.652 11.4288ZM85.0408 7.54147C82.8479 7.54147 81.3029 9.11138 81.3029 11.4538C81.3029 13.7962 82.8728 15.3661 85.1404 15.3661C86.2369 15.3661 87.3333 15.0421 88.1806 14.3444L87.4081 13.1732C86.7851 13.6466 86.0126 13.9457 85.2152 13.9457C84.1935 13.9457 83.1967 13.4722 82.9476 12.1515H88.4796V11.5285C88.5544 9.08645 87.1589 7.54147 85.0408 7.54147ZM85.0408 8.93694C86.0624 8.93694 86.7602 9.55992 86.9097 10.7311H82.9974C83.1718 9.73435 83.8696 8.93694 85.0408 8.93694ZM125.734 4.72562H124.089V8.63792C123.541 7.94018 122.768 7.54147 121.747 7.54147C119.628 7.54147 118.009 9.18613 118.009 11.4538C118.009 13.7214 119.653 15.3661 121.747 15.3661C122.843 15.3661 123.615 14.9674 124.089 14.2696V15.2166H125.734V4.72562ZM119.703 11.4288C119.703 10.1081 120.55 9.0117 121.971 9.0117C123.292 9.0117 124.238 10.0334 124.238 11.4288C124.238 12.7496 123.292 13.846 121.971 13.846C120.575 13.7712 119.703 12.7745 119.703 11.4288ZM64.9062 7.69099H63.2615V8.63792C62.7133 7.94018 61.9408 7.54147 60.9191 7.54147C58.801 7.54147 57.1812 9.18613 57.1812 11.4538C57.1812 13.7214 58.8259 15.3661 60.9191 15.3661C62.0155 15.3661 62.788 14.9674 63.2615 14.2696V15.2166H64.9062V7.69099ZM58.8259 11.4288C58.8259 10.1081 59.6731 9.0117 61.0935 9.0117C62.4142 9.0117 63.3612 10.0334 63.3612 11.4288C63.3612 12.7496 62.4142 13.846 61.0935 13.846C59.6731 13.7712 58.8259 12.7745 58.8259 11.4288Z" fill="white"/>
<path d="M55.6861 15.1916V10.5068C55.6861 8.71267 54.5897 7.54147 52.7207 7.54147C51.7738 7.54147 50.777 7.86542 50.0544 8.86219C49.5062 8.01494 48.7337 7.54147 47.5625 7.54147C46.79 7.54147 45.9926 7.76575 45.3696 8.63792V7.69099H43.7499V15.1916H45.3945V11.0551C45.3945 9.73435 46.0923 9.11138 47.1887 9.11138C48.2851 9.11138 48.8333 9.80911 48.8333 11.0551V15.1916H50.478V11.0551C50.478 9.73435 51.2505 9.11138 52.2722 9.11138C53.3686 9.11138 53.9168 9.80911 53.9168 11.0551V15.1916H55.6861ZM79.9822 7.69099H77.3158V5.42335H75.6712V7.69099H74.176V9.18613H75.6712V12.625C75.6712 14.3444 76.3689 15.3661 78.2379 15.3661C78.9356 15.3661 79.733 15.1418 80.2563 14.8178L79.7828 13.4224C79.3094 13.7463 78.7612 13.8211 78.3874 13.8211C77.6149 13.8211 77.2909 13.3476 77.2909 12.5751V9.21105H79.9573V7.69099H79.9822ZM93.8621 7.54147C92.9152 7.54147 92.2922 8.01494 91.9184 8.63792V7.69099H90.2738V15.1916H91.9184V10.9803C91.9184 9.73435 92.4667 9.03662 93.4883 9.03662C93.8123 9.03662 94.1861 9.11137 94.51 9.18613L94.9835 7.61623C94.6595 7.54147 94.1861 7.54147 93.8621 7.54147ZM72.8553 8.31396C72.0828 7.76574 70.9864 7.54147 69.8152 7.54147C67.9463 7.54147 66.7003 8.4884 66.7003 9.95862C66.7003 11.2046 67.6472 11.9023 69.267 12.1515L70.0395 12.2263C70.8867 12.3758 71.3602 12.625 71.3602 12.9988C71.3602 13.547 70.7372 13.9457 69.6408 13.9457C68.5443 13.9457 67.6971 13.547 67.1489 13.1732L66.3764 14.4191C67.2236 15.0421 68.3948 15.3661 69.566 15.3661C71.7589 15.3661 73.0049 14.3444 73.0049 12.9489C73.0049 11.6282 71.9832 10.9305 70.4382 10.6813L69.6657 10.6065C68.968 10.5318 68.4197 10.3822 68.4197 9.90878C68.4197 9.36056 68.968 9.06153 69.8152 9.06153C70.7621 9.06153 71.6841 9.46024 72.1576 9.68451L72.8553 8.31396ZM116.439 7.54147C115.492 7.54147 114.869 8.01494 114.495 8.63792V7.69099H112.85V15.1916H114.495V10.9803C114.495 9.73435 115.043 9.03662 116.065 9.03662C116.389 9.03662 116.763 9.11137 117.087 9.18613L117.56 7.61623C117.211 7.54147 116.738 7.54147 116.439 7.54147ZM95.5068 11.4288C95.5068 13.6965 97.0767 15.3411 99.4938 15.3411C100.59 15.3411 101.363 15.1169 102.16 14.4939L101.388 13.1732C100.765 13.6466 100.142 13.8709 99.444 13.8709C98.1233 13.8709 97.1764 12.924 97.1764 11.4538C97.1764 10.0583 98.1233 9.11137 99.444 9.03662C100.142 9.03662 100.765 9.26089 101.388 9.73435L102.16 8.41364C101.388 7.79066 100.59 7.56639 99.4938 7.56639C97.0767 7.54147 95.5068 9.18613 95.5068 11.4288ZM110.658 7.69099H109.013V8.63792C108.465 7.94018 107.692 7.54147 106.671 7.54147C104.552 7.54147 102.933 9.18613 102.933 11.4538C102.933 13.7214 104.577 15.3661 106.671 15.3661C107.767 15.3661 108.539 14.9674 109.013 14.2696V15.2166H110.658V7.69099ZM104.652 11.4288C104.652 10.1081 105.499 9.0117 106.92 9.0117C108.24 9.0117 109.187 10.0334 109.187 11.4288C109.187 12.7496 108.24 13.846 106.92 13.846C105.499 13.7712 104.652 12.7745 104.652 11.4288ZM85.0408 7.54147C82.8479 7.54147 81.3029 9.11138 81.3029 11.4538C81.3029 13.7962 82.8728 15.3661 85.1404 15.3661C86.2369 15.3661 87.3333 15.0421 88.1806 14.3444L87.4081 13.1732C86.7851 13.6466 86.0126 13.9457 85.2152 13.9457C84.1935 13.9457 83.1967 13.4722 82.9476 12.1515H88.4796V11.5285C88.5544 9.08645 87.1589 7.54147 85.0408 7.54147ZM85.0408 8.93694C86.0624 8.93694 86.7602 9.55992 86.9097 10.7311H82.9974C83.1718 9.73435 83.8696 8.93694 85.0408 8.93694ZM125.734 4.72562H124.089V8.63792C123.541 7.94018 122.768 7.54147 121.747 7.54147C119.628 7.54147 118.009 9.18613 118.009 11.4538C118.009 13.7214 119.653 15.3661 121.747 15.3661C122.843 15.3661 123.615 14.9674 124.089 14.2696V15.2166H125.734V4.72562ZM119.703 11.4288C119.703 10.1081 120.55 9.0117 121.971 9.0117C123.292 9.0117 124.238 10.0334 124.238 11.4288C124.238 12.7496 123.292 13.846 121.971 13.846C120.575 13.7712 119.703 12.7745 119.703 11.4288ZM64.9062 7.69099H63.2615V8.63792C62.7133 7.94018 61.9408 7.54147 60.9191 7.54147C58.801 7.54147 57.1812 9.18613 57.1812 11.4538C57.1812 13.7214 58.8259 15.3661 60.9191 15.3661C62.0155 15.3661 62.788 14.9674 63.2615 14.2696V15.2166H64.9062V7.69099ZM58.8259 11.4288C58.8259 10.1081 59.6731 9.0117 61.0935 9.0117C62.4142 9.0117 63.3612 10.0334 63.3612 11.4288C63.3612 12.7496 62.4142 13.846 61.0935 13.846C59.6731 13.7712 58.8259 12.7745 58.8259 11.4288Z" fill="url(#paint0_linear_61_68)"/>
<path d="M13.901 11.3347C13.901 7.74923 15.5842 4.56214 18.1737 2.50049C16.2714 1.00655 13.8712 0.10022 11.2418 0.10022C5.03695 0.10022 0.00732422 5.11988 0.00732422 11.3347C0.00732422 17.5396 5.02699 22.5692 11.2418 22.5692C13.8612 22.5692 16.2615 21.6629 18.1737 20.1689C15.5842 18.1371 13.901 14.9202 13.901 11.3347Z" fill="white"/>
<path d="M13.901 11.3347C13.901 7.74923 15.5842 4.56214 18.1737 2.50049C16.2714 1.00655 13.8712 0.10022 11.2418 0.10022C5.03695 0.10022 0.00732422 5.11988 0.00732422 11.3347C0.00732422 17.5396 5.02699 22.5692 11.2418 22.5692C13.8612 22.5692 16.2615 21.6629 18.1737 20.1689C15.5842 18.1371 13.901 14.9202 13.901 11.3347Z" fill="url(#paint1_linear_61_68)"/>
<path d="M36.37 11.3347C36.37 17.5396 31.3503 22.5692 25.1355 22.5692C22.5161 22.5692 20.1158 21.6629 18.2036 20.1689C20.823 18.1073 22.4763 14.9301 22.4763 11.3347C22.4763 7.74923 20.7931 4.56215 18.2036 2.5005C20.1059 1.00655 22.5061 0.100224 25.1355 0.100224C31.3503 0.100224 36.37 5.14977 36.37 11.3347Z" fill="white"/>
<path d="M36.37 11.3347C36.37 17.5396 31.3503 22.5692 25.1355 22.5692C22.5161 22.5692 20.1158 21.6629 18.2036 20.1689C20.823 18.1073 22.4763 14.9301 22.4763 11.3347C22.4763 7.74923 20.7931 4.56215 18.2036 2.5005C20.1059 1.00655 22.5061 0.100224 25.1355 0.100224C31.3503 0.100224 36.37 5.14977 36.37 11.3347Z" fill="url(#paint2_linear_61_68)"/>
<defs>
<linearGradient id="paint0_linear_61_68" x1="62.8705" y1="0.10022" x2="62.8705" y2="22.5692" gradientUnits="userSpaceOnUse">
<stop stop-color="white"/>
<stop offset="1" stop-color="white" stop-opacity="0"/>
</linearGradient>
<linearGradient id="paint1_linear_61_68" x1="62.8705" y1="0.10022" x2="62.8705" y2="22.5692" gradientUnits="userSpaceOnUse">
<stop stop-color="white"/>
<stop offset="1" stop-color="white" stop-opacity="0"/>
</linearGradient>
<linearGradient id="paint2_linear_61_68" x1="62.8705" y1="0.10022" x2="62.8705" y2="22.5692" gradientUnits="userSpaceOnUse">
<stop stop-color="white"/>
<stop offset="1" stop-color="white" stop-opacity="0"/>
</linearGradient>
</defs>
</svg>
