<svg width="66" height="19" viewBox="0 0 66 19" fill="none" xmlns="http://www.w3.org/2000/svg">
<path d="M58.4503 0.00305176H46.0481C46.7706 4.0968 50.7441 7.94975 55.0789 7.94975H64.9525C65.0729 7.58854 65.0729 6.98651 65.0729 6.6253C65.0729 3.01316 62.0627 0.00305176 58.4503 0.00305176Z" fill="white"/>
<path d="M47.1313 8.67273V18.6663H53.1519V13.3685H58.4499C61.3398 13.3685 63.8684 11.3216 64.7113 8.67273H47.1313Z" fill="white"/>
<path d="M25.9385 0.00305176V18.5453H31.2366C31.2366 18.5453 32.5611 18.5453 33.2835 17.2209C36.8958 10.117 37.9795 7.94975 37.9795 7.94975H38.702V18.5453H44.7225V0.00305176H39.4244C39.4244 0.00305176 38.0999 0.123464 37.3775 1.32751C34.3672 7.46813 32.6815 10.5986 32.6815 10.5986H31.959V0.00305176H25.9385Z" fill="white"/>
<path d="M0.65332 18.6667V0.12439H6.67383C6.67383 0.12439 8.35959 0.124386 9.32288 2.77328C11.7311 9.75674 11.9719 10.72 11.9719 10.72C11.9719 10.72 12.4535 9.03431 14.6209 2.77328C15.5842 0.124386 17.27 0.12439 17.27 0.12439H23.2905V18.6667H17.27V8.67311H16.5475L13.176 18.6667H10.527L7.15551 8.67311H6.43304V18.6667H0.65332Z" fill="white"/>
</svg>
