<svg width="97" height="17" viewBox="0 0 97 17" fill="none" xmlns="http://www.w3.org/2000/svg">
<path d="M94.4424 1.30945C93.2205 0.472322 91.3712 0.0501281 88.947 0.0501281H82.5986L80.2385 12.863H71.9218L72.4564 9.95601H77.4662L78.0598 6.69103L73.0529 6.69823L73.5889 3.80424H78.7493L79.4358 0.050876H68.9563L66.7157 12.2047H62.87L65.1257 0.0502368H59.6476L57.4071 12.204H53.6607L55.9186 0.0502368H50.4434L48.0803 12.8631H39.7039L40.2334 9.95612H45.2634L45.8578 6.70968L40.8326 6.70464L41.3657 3.80489H46.584L47.2662 0.0499268H14.61L12.7513 10.2032L9.0497 0.0499268H3.36611L0.307129 16.62H5.73502L7.58655 6.18675L11.1785 16.62H30.6316L32.9968 3.80329H36.0392L33.674 16.62H84.8589L86.343 8.5296L88.7435 16.62H94.1742L91.6866 10.0092L92.2558 9.88668C93.5093 9.61796 94.4869 9.04088 95.1677 8.17566C95.8478 7.3025 96.1944 6.18148 96.1944 4.83493C96.1944 3.26726 95.6209 2.11385 94.4408 1.30849L94.4424 1.30945ZM25.9082 12.863H17.5995L18.1362 9.95601H23.3477L23.9385 6.68176H18.7772L19.2743 3.80506H27.5708L25.9066 12.8629L25.9082 12.863ZM89.9676 7.28167C89.4215 7.66349 88.6298 7.84935 87.547 7.84935H86.4735L87.2969 3.40272H88.0865C88.9857 3.40272 89.6412 3.5468 90.0937 3.84073C90.4467 4.07127 90.8667 4.52732 90.8667 5.38967C90.8654 6.43287 90.3768 6.99336 89.9661 7.28154L89.9676 7.28167Z" fill="white"/>
</svg>
