<svg width="100" height="34" viewBox="0 0 100 34" fill="none" xmlns="http://www.w3.org/2000/svg">
<path d="M53.3413 9.20508V21.2992H55.4493V9.20508H53.3413Z" fill="white"/>
<path fill-rule="evenodd" clip-rule="evenodd" d="M33.1206 24.7544V12.5569H34.9354L35.1083 13.5415H35.1947C35.7132 12.8671 36.5944 12.3841 37.8212 12.3841C40.0666 12.3841 41.8644 14.2159 41.8644 16.9273C41.8644 19.6387 40.0681 21.4705 37.8212 21.4705C36.6113 21.4705 35.7657 20.969 35.3166 20.3995H35.2302V24.7529H33.1221L33.1206 24.7544ZM39.7549 16.9288C39.7549 15.3393 38.7348 14.3378 37.491 14.3378C36.2471 14.3378 35.2271 15.3393 35.2271 16.9288C35.2271 18.5183 36.2471 19.5199 37.491 19.5199C38.7348 19.5199 39.7549 18.5183 39.7549 16.9288Z" fill="white"/>
<path fill-rule="evenodd" clip-rule="evenodd" d="M42.9339 16.9273C42.9339 14.2838 44.8336 12.3841 47.3737 12.3841C49.9138 12.3841 51.8135 14.2838 51.8135 16.9273C51.8135 19.5708 49.9138 21.4705 47.3737 21.4705C44.8336 21.4705 42.9339 19.5523 42.9339 16.9273ZM49.6885 16.9273C49.6885 15.3717 48.6514 14.3362 47.3737 14.3362C46.0959 14.3362 45.0419 15.3733 45.0419 16.9273C45.0419 18.4813 46.0959 19.5014 47.3737 19.5014C48.6514 19.5014 49.6885 18.4828 49.6885 16.9273Z" fill="white"/>
<path d="M63.2749 12.5569H65.5202L61.7193 23.1819C61.3397 24.2359 60.8212 24.7544 59.4554 24.7544H57.4169V22.8023H59.1453C59.457 22.8023 59.6283 22.6464 59.7332 22.3872L59.94 21.8177L56.3814 12.5569H58.6267L60.8906 18.6217H61.2363L63.2749 12.5569Z" fill="white"/>
<path fill-rule="evenodd" clip-rule="evenodd" d="M68.065 21.7313H65.923C65.9755 22.9921 67.1159 24.9273 70.0696 24.9273C72.7132 24.9273 74.2687 23.3887 74.2687 21.0739V12.5569H72.4369L72.2641 13.5075H72.1777C71.6422 12.8501 70.7949 12.3841 69.6375 12.3841C67.3922 12.3841 65.6638 14.094 65.6638 16.5816C65.6638 19.0693 67.3922 20.7977 69.6375 20.7977C70.744 20.7977 71.6082 20.3486 72.0743 19.847H72.1607V21.0739C72.1607 22.2838 71.3304 23.0785 70.0696 23.0785C68.7209 23.0785 68.1514 22.3007 68.065 21.7313ZM69.9662 14.2683C71.1931 14.2683 72.1607 15.219 72.1607 16.5832C72.1607 17.9643 71.1761 18.9149 69.9662 18.9149C68.7564 18.9149 67.7888 17.9474 67.7888 16.5832C67.7888 15.219 68.7394 14.2683 69.9662 14.2683Z" fill="white"/>
<path fill-rule="evenodd" clip-rule="evenodd" d="M75.7332 16.9273C75.7332 14.2838 77.6329 12.3841 80.173 12.3841C82.7131 12.3841 84.6128 14.2838 84.6128 16.9273C84.6128 19.5708 82.7131 21.4705 80.173 21.4705C77.6329 21.4705 75.7332 19.5523 75.7332 16.9273ZM82.4878 16.9273C82.4878 15.3717 81.4508 14.3362 80.173 14.3362C78.8952 14.3362 77.8412 15.3733 77.8412 16.9273C77.8412 18.4813 78.8952 19.5014 80.173 19.5014C81.4508 19.5014 82.4878 18.4828 82.4878 16.9273Z" fill="white"/>
<path d="M86.0804 21.2977V21.2992L86.0789 21.2977H86.0804Z" fill="white"/>
<path d="M86.0804 21.2977H88.1869V16.3224C88.1869 15.2344 89.0511 14.3872 90.139 14.3872C91.227 14.3872 92.0218 15.1989 92.0218 16.3224V21.2977H94.1298V16.0461C94.1298 13.8347 92.6792 12.3841 90.6745 12.3841C89.3628 12.3841 88.4986 12.989 88.1529 13.3856H88.0665L87.8937 12.5569H86.0804V21.2977Z" fill="white"/>
<path d="M21.7766 22.0338L26.9587 19.0415C27.2334 18.8825 27.4031 18.5878 27.4031 18.2714V12.2869C27.4031 11.9705 27.2334 11.6757 26.9587 11.5168L21.7766 8.52452C21.5019 8.36557 21.1608 8.36711 20.8877 8.52452L15.7056 11.5168C15.4309 11.6757 15.2611 11.9705 15.2611 12.2869V22.9813L11.6269 25.0785L7.99263 22.9813V18.7853L11.6269 16.6881L14.0235 18.0723V15.2575L12.0713 14.1294C11.9371 14.0523 11.7828 14.0106 11.6269 14.0106C11.471 14.0106 11.3167 14.0523 11.1824 14.1294L6.00035 17.1217C5.72566 17.2807 5.55591 17.5754 5.55591 17.8918V23.8764C5.55591 24.1927 5.72566 24.4875 6.00035 24.6464L11.1824 27.6387C11.4571 27.7961 11.7966 27.7961 12.0713 27.6387L17.2534 24.6464C17.5281 24.4875 17.6979 24.1927 17.6979 23.8764V13.1819L17.7627 13.1449L21.3306 11.0847L24.9648 13.1819V17.3779L21.3306 19.4751L18.9371 18.094V20.9088L20.8861 22.0338C21.1608 22.1912 21.5019 22.1912 21.775 22.0338H21.7766Z" fill="white"/>
</svg>
