<svg width="52" height="19" viewBox="0 0 52 19" fill="none" xmlns="http://www.w3.org/2000/svg">
<path d="M34.9459 17.834H39.1769V5.96284H34.9459V17.834ZM32.5635 5.7878C28.6549 5.91374 26.6696 7.66848 26.6696 11.1545V17.834H30.939V12.3862C30.939 10.2984 31.2123 9.3976 33.6885 9.31861V5.8497C33.4014 5.8024 33.1107 5.78097 32.8197 5.78566H32.5678M0.566406 6.76976C0.566406 8.14025 1.15345 11.3679 6.61404 11.7415C7.07727 11.7693 8.30472 11.8397 8.30472 12.9925C8.30472 13.9424 7.29928 14.5017 5.60859 14.5017C3.9845 14.4879 2.37674 14.176 0.865266 13.5816V17.3729C2.70918 17.8278 4.60406 18.043 6.50303 18.0133C11.1652 18.0133 13.253 15.3833 13.253 12.779C13.253 9.82667 10.9048 7.90757 6.99615 7.65567C6.46247 7.62151 5.22434 7.5404 5.22434 6.42607C5.22434 5.08334 7.00682 5.08334 7.67499 5.08334C8.84908 5.08334 10.3711 5.42916 11.4577 5.75577C11.4577 5.75577 12.0639 5.96925 12.5805 6.18272L12.6275 6.19553V2.50034L12.5613 2.48112C11.2805 2.03283 9.78621 1.60162 7.0239 1.60162C2.25496 1.60376 0.566406 4.38102 0.566406 6.76976ZM14.3161 2.47472V17.8447H18.6794V13.0821C19.9453 14.9799 20.5686 17.834 20.5686 17.834H25.7965C25.2778 15.6843 23.0214 11.7202 23.0214 11.7202C24.3648 9.98838 25.401 8.03882 26.0847 5.95644H21.0895C20.5163 7.45531 19.7022 8.85054 18.6794 10.0871V1.60376L14.3161 2.47472ZM40.9679 2.36798V17.8425H45.1946V1.6187L40.9679 2.36798ZM47.1415 2.36798V17.8425H51.3725V1.6187L47.1415 2.36798ZM37.0614 0.660212C36.6489 0.660212 36.2457 0.782532 35.9027 1.0117C35.5597 1.24087 35.2924 1.5666 35.1345 1.9477C34.9767 2.32879 34.9354 2.74814 35.0158 3.15271C35.0963 3.55728 35.295 3.9289 35.5866 4.22058C35.8783 4.51226 36.2499 4.71089 36.6545 4.79137C37.0591 4.87184 37.4784 4.83054 37.8595 4.67269C38.2406 4.51483 38.5663 4.24751 38.7955 3.90453C39.0247 3.56156 39.147 3.15832 39.147 2.74583C39.1487 2.19306 38.9309 1.66222 38.5414 1.26995C38.1519 0.87768 37.6227 0.656069 37.0699 0.653809L37.0614 0.660212Z" fill="white"/>
</svg>
