<svg width="98" height="33" viewBox="0 0 98 33" fill="none" xmlns="http://www.w3.org/2000/svg">
<path d="M80.0401 11.8221V19.6834L72.344 11.13V21.8521H73.4296V13.9884L81.1306 22.5442V11.8221H80.0401Z" fill="white"/>
<path d="M80.0401 11.8221V19.6834L72.344 11.13V21.8521H73.4296V13.9884L81.1306 22.5442V11.8221H80.0401Z" fill="url(#paint0_linear_61_54)"/>
<path d="M38.616 11.8221H47.405V12.9004H38.616V11.8221Z" fill="white"/>
<path d="M38.616 11.8221H47.405V12.9004H38.616V11.8221Z" fill="url(#paint1_linear_61_54)"/>
<path d="M41.4963 14.8044H42.5746V21.8448H41.4963V14.8044Z" fill="white"/>
<path d="M41.4963 14.8044H42.5746V21.8448H41.4963V14.8044Z" fill="url(#paint2_linear_61_54)"/>
<path d="M44.5223 14.8044H43.444V21.8448H44.5223V14.8044Z" fill="white"/>
<path d="M44.5223 14.8044H43.444V21.8448H44.5223V14.8044Z" fill="url(#paint3_linear_61_54)"/>
<path d="M75.3991 21.8521H74.3111V16.4024L75.3991 17.6118V21.8521Z" fill="white"/>
<path d="M75.3991 21.8521H74.3111V16.4024L75.3991 17.6118V21.8521Z" fill="url(#paint4_linear_61_54)"/>
<path d="M65.2987 16.111C64.9004 16.111 64.5774 16.434 64.5774 16.8322C64.5774 17.2305 64.9004 17.5535 65.2987 17.5535C65.697 17.5535 66.02 17.2305 66.02 16.8322C66.02 16.434 65.697 16.111 65.2987 16.111Z" fill="white"/>
<path d="M65.2987 16.111C64.9004 16.111 64.5774 16.434 64.5774 16.8322C64.5774 17.2305 64.9004 17.5535 65.2987 17.5535C65.697 17.5535 66.02 17.2305 66.02 16.8322C66.02 16.434 65.697 16.111 65.2987 16.111Z" fill="url(#paint5_linear_61_54)"/>
<path fill-rule="evenodd" clip-rule="evenodd" d="M60.2837 16.8322C60.2837 14.0661 62.5326 11.8172 65.2987 11.8172C68.0649 11.8172 70.3137 14.0685 70.3137 16.8322C70.3137 19.5984 68.0649 21.8472 65.2987 21.8472C62.5326 21.8472 60.2837 19.5984 60.2837 16.8322ZM61.3644 16.8322C61.3644 19.0034 63.13 20.7665 65.2987 20.7665C67.4674 20.7665 69.233 19.001 69.233 16.8322C69.233 14.6611 67.4674 12.898 65.2987 12.898C63.1276 12.898 61.3644 14.6611 61.3644 16.8322Z" fill="white"/>
<path fill-rule="evenodd" clip-rule="evenodd" d="M60.2837 16.8322C60.2837 14.0661 62.5326 11.8172 65.2987 11.8172C68.0649 11.8172 70.3137 14.0685 70.3137 16.8322C70.3137 19.5984 68.0649 21.8472 65.2987 21.8472C62.5326 21.8472 60.2837 19.5984 60.2837 16.8322ZM61.3644 16.8322C61.3644 19.0034 63.13 20.7665 65.2987 20.7665C67.4674 20.7665 69.233 19.001 69.233 16.8322C69.233 14.6611 67.4674 12.898 65.2987 12.898C63.1276 12.898 61.3644 14.6611 61.3644 16.8322Z" fill="url(#paint6_linear_61_54)"/>
<path d="M55.344 11.8245C57.027 11.8245 58.3967 13.204 58.3967 14.8991C58.3967 16.2154 57.5321 17.4102 56.296 17.8207L58.4356 21.8521H57.1897L55.14 17.9737H52.6313V21.8545H51.5603V16.8857L55.3658 16.8881C56.4369 16.876 57.3039 15.9895 57.3039 14.8991C57.3039 13.8038 56.4247 12.9125 55.344 12.9125H50.6787V21.8545H49.6077V11.8245H55.344Z" fill="white"/>
<path d="M55.344 11.8245C57.027 11.8245 58.3967 13.204 58.3967 14.8991C58.3967 16.2154 57.5321 17.4102 56.296 17.8207L58.4356 21.8521H57.1897L55.14 17.9737H52.6313V21.8545H51.5603V16.8857L55.3658 16.8881C56.4369 16.876 57.3039 15.9895 57.3039 14.8991C57.3039 13.8038 56.4247 12.9125 55.344 12.9125H50.6787V21.8545H49.6077V11.8245H55.344Z" fill="url(#paint7_linear_61_54)"/>
<path d="M31.2016 9.83552L16.5864 7.14709L24.2777 26.498L34.9926 13.442L31.2016 9.83552ZM30.9684 11.0207L33.2051 13.1457L27.09 14.2531L30.9684 11.0207ZM25.7616 14.0321L19.3161 8.68681L29.8489 10.6248L25.7616 14.0321ZM25.3001 14.9792L24.251 23.6662L18.5851 9.40567L25.3001 14.9792ZM26.2716 15.4382L33.0424 14.2118L25.2783 23.6735L26.2716 15.4382Z" fill="white"/>
<path d="M31.2016 9.83552L16.5864 7.14709L24.2777 26.498L34.9926 13.442L31.2016 9.83552ZM30.9684 11.0207L33.2051 13.1457L27.09 14.2531L30.9684 11.0207ZM25.7616 14.0321L19.3161 8.68681L29.8489 10.6248L25.7616 14.0321ZM25.3001 14.9792L24.251 23.6662L18.5851 9.40567L25.3001 14.9792ZM26.2716 15.4382L33.0424 14.2118L25.2783 23.6735L26.2716 15.4382Z" fill="url(#paint8_linear_61_54)"/>
<defs>
<linearGradient id="paint0_linear_61_54" x1="48.8585" y1="7.14709" x2="48.8585" y2="26.498" gradientUnits="userSpaceOnUse">
<stop stop-color="white"/>
<stop offset="1" stop-color="white" stop-opacity="0"/>
</linearGradient>
<linearGradient id="paint1_linear_61_54" x1="48.8585" y1="7.14709" x2="48.8585" y2="26.498" gradientUnits="userSpaceOnUse">
<stop stop-color="white"/>
<stop offset="1" stop-color="white" stop-opacity="0"/>
</linearGradient>
<linearGradient id="paint2_linear_61_54" x1="48.8585" y1="7.14709" x2="48.8585" y2="26.498" gradientUnits="userSpaceOnUse">
<stop stop-color="white"/>
<stop offset="1" stop-color="white" stop-opacity="0"/>
</linearGradient>
<linearGradient id="paint3_linear_61_54" x1="48.8585" y1="7.14709" x2="48.8585" y2="26.498" gradientUnits="userSpaceOnUse">
<stop stop-color="white"/>
<stop offset="1" stop-color="white" stop-opacity="0"/>
</linearGradient>
<linearGradient id="paint4_linear_61_54" x1="48.8585" y1="7.14709" x2="48.8585" y2="26.498" gradientUnits="userSpaceOnUse">
<stop stop-color="white"/>
<stop offset="1" stop-color="white" stop-opacity="0"/>
</linearGradient>
<linearGradient id="paint5_linear_61_54" x1="48.8585" y1="7.14709" x2="48.8585" y2="26.498" gradientUnits="userSpaceOnUse">
<stop stop-color="white"/>
<stop offset="1" stop-color="white" stop-opacity="0"/>
</linearGradient>
<linearGradient id="paint6_linear_61_54" x1="48.8585" y1="7.14709" x2="48.8585" y2="26.498" gradientUnits="userSpaceOnUse">
<stop stop-color="white"/>
<stop offset="1" stop-color="white" stop-opacity="0"/>
</linearGradient>
<linearGradient id="paint7_linear_61_54" x1="48.8585" y1="7.14709" x2="48.8585" y2="26.498" gradientUnits="userSpaceOnUse">
<stop stop-color="white"/>
<stop offset="1" stop-color="white" stop-opacity="0"/>
</linearGradient>
<linearGradient id="paint8_linear_61_54" x1="48.8585" y1="7.14709" x2="48.8585" y2="26.498" gradientUnits="userSpaceOnUse">
<stop stop-color="white"/>
<stop offset="1" stop-color="white" stop-opacity="0"/>
</linearGradient>
</defs>
</svg>
