<svg width="99" height="34" viewBox="0 0 99 34" fill="none" xmlns="http://www.w3.org/2000/svg">
<path d="M32.7002 12.0616H33.3352C33.4153 12.0616 33.492 12.0937 33.5486 12.1507C33.6052 12.2078 33.637 12.2852 33.637 12.3658V18.2664C33.637 20.1306 34.6381 21.3083 36.5006 21.3083C38.3631 21.3083 39.3642 20.1306 39.3642 18.2664V12.3658C39.3642 12.2852 39.396 12.2078 39.4526 12.1507C39.5092 12.0937 39.586 12.0616 39.666 12.0616H40.3393C40.379 12.0616 40.4182 12.0695 40.4548 12.0848C40.4915 12.1001 40.5247 12.1225 40.5528 12.1507C40.5808 12.179 40.603 12.2125 40.6182 12.2494C40.6334 12.2863 40.6412 12.3259 40.6412 12.3658V18.282C40.6412 20.8209 39.2609 22.4393 36.52 22.4393C33.7791 22.4393 32.3987 20.8053 32.3987 18.2976V12.3658C32.3981 12.3258 32.4055 12.2859 32.4204 12.2488C32.4353 12.2116 32.4575 12.1778 32.4856 12.1495C32.5137 12.1211 32.5472 12.0987 32.5841 12.0836C32.6209 12.0685 32.6604 12.0611 32.7002 12.0616ZM42.5617 20.1122C42.5849 20.0829 42.6138 20.0587 42.6468 20.0412C42.6797 20.0237 42.7159 20.0134 42.7531 20.0108C42.7902 20.0082 42.8275 20.0135 42.8625 20.0263C42.8975 20.039 42.9295 20.059 42.9564 20.0849C43.6336 20.7479 44.6475 21.3212 45.9322 21.3212C47.7355 21.3212 48.3121 20.3423 48.3121 19.5623C48.3121 18.3378 47.0854 18.0024 45.7503 17.6358C44.1289 17.2068 42.3218 16.7505 42.3218 14.746C42.3218 13.0651 43.8077 11.9185 45.7968 11.9185C47.2247 11.9185 48.3546 12.3592 49.1866 13.1353C49.2442 13.1884 49.2792 13.2619 49.2843 13.3404C49.2893 13.4189 49.264 13.4963 49.2137 13.5565L48.819 14.044C48.7959 14.0723 48.7672 14.0955 48.7348 14.1121C48.7023 14.1287 48.6669 14.1384 48.6306 14.1406C48.5942 14.1428 48.5579 14.1374 48.5237 14.1248C48.4896 14.1122 48.4583 14.0927 48.432 14.0674C47.6929 13.3693 46.7177 13.0495 45.7039 13.0495C44.4888 13.0495 43.6259 13.7086 43.6259 14.668C43.6259 15.6936 44.7945 15.9978 46.0831 16.3488C47.7355 16.7934 49.6161 17.3121 49.6161 19.4532C49.6161 20.9351 48.6139 22.4483 45.8858 22.4483C44.2528 22.4483 43.0222 21.8672 42.1863 21.0248C42.1336 20.9719 42.1021 20.9013 42.0978 20.8265C42.0936 20.7517 42.1168 20.6779 42.1631 20.6192L42.5617 20.1122ZM51.128 12.4048C51.128 12.3242 51.1598 12.2468 51.2164 12.1897C51.273 12.1327 51.3498 12.1006 51.4299 12.1006H54.5782C57.7127 12.1006 59.7598 14.3123 59.7598 17.1978C59.7598 20.099 57.7158 22.2794 54.5782 22.2794H51.4299C51.3498 22.2794 51.273 22.2474 51.2164 22.1903C51.1598 22.1333 51.128 22.0559 51.128 21.9752V12.4048ZM54.56 21.1484C57.0123 21.1484 58.4336 19.3775 58.4336 17.1978C58.4336 14.9987 57.0548 13.2316 54.56 13.2316H52.3663V21.1484H54.56ZM72.3467 18.5718C72.3467 16.4307 73.7436 14.7031 75.9726 14.7031C78.2015 14.7031 79.5985 16.4307 79.5985 18.5718C79.5985 20.7128 78.2015 22.4561 75.9726 22.4561C73.7436 22.4561 72.3467 20.7089 72.3467 18.5718ZM78.3989 18.5718C78.3989 17.0742 77.5359 15.7287 75.9726 15.7287C74.4092 15.7287 73.5308 17.0742 73.5308 18.5718C73.5308 20.0849 74.4092 21.4304 75.9726 21.4304C77.5359 21.4304 78.3989 20.0849 78.3989 18.5718ZM80.6897 12.8701C80.69 12.6675 80.77 12.4732 80.9122 12.3299C81.0544 12.1867 81.2471 12.106 81.4482 12.1057C81.5489 12.1043 81.6489 12.1229 81.7425 12.1607C81.836 12.1984 81.9212 12.2544 81.9931 12.3254C82.0651 12.3965 82.1224 12.4812 82.1617 12.5747C82.201 12.6682 82.2215 12.7686 82.2221 12.8701C82.2215 13.0768 82.1398 13.2748 81.9948 13.4209C81.8497 13.5671 81.6533 13.6495 81.4482 13.6501C81.038 13.6501 80.6897 13.2952 80.6897 12.8701ZM81.1878 14.9086H81.7063C81.7863 14.9086 81.8631 14.9406 81.9197 14.9977C81.9763 15.0547 82.0081 15.1321 82.0081 15.2128V21.9752C82.0081 22.0559 81.9763 22.1333 81.9197 22.1903C81.8631 22.2474 81.7863 22.2794 81.7063 22.2794H81.1878C81.1481 22.2794 81.1089 22.2715 81.0723 22.2563C81.0356 22.241 81.0023 22.2186 80.9743 22.1903C80.9463 22.1621 80.9241 22.1285 80.9089 22.0916C80.8937 22.0547 80.8859 22.0152 80.8859 21.9752V15.2128C80.8859 15.1728 80.8937 15.1333 80.9089 15.0964C80.9241 15.0595 80.9463 15.0259 80.9743 14.9977C81.0023 14.9694 81.0356 14.947 81.0723 14.9317C81.1089 14.9165 81.1481 14.9086 81.1878 14.9086ZM88.5827 17.4435C88.5827 16.1417 87.9322 15.7276 86.9544 15.7276C86.0643 15.7276 85.2176 16.279 84.7943 16.8769V21.9756C84.7943 22.0563 84.7625 22.1337 84.7059 22.1907C84.6493 22.2478 84.5725 22.2798 84.4925 22.2798H83.9352C83.8552 22.2798 83.7784 22.2478 83.7218 22.1907C83.6652 22.1337 83.6334 22.0563 83.6334 21.9756V15.2132C83.6334 15.1325 83.6652 15.0551 83.7218 14.9981C83.7784 14.941 83.8552 14.909 83.9352 14.909H84.4538C84.5338 14.909 84.6106 14.941 84.6672 14.9981C84.7238 15.0551 84.7556 15.1325 84.7556 15.2132V15.9764C85.271 15.3649 86.2748 14.7257 87.368 14.7257C88.9027 14.7257 89.7088 15.5057 89.7088 17.1046V21.9741C89.7088 22.014 89.701 22.0536 89.6858 22.0905C89.6707 22.1274 89.6484 22.1609 89.6204 22.1892C89.5924 22.2174 89.5591 22.2398 89.5225 22.2551C89.4858 22.2704 89.4466 22.2782 89.407 22.2782H88.8884C88.8084 22.2782 88.7316 22.2462 88.675 22.1892C88.6184 22.1321 88.5866 22.0547 88.5866 21.9741V17.4435H88.5827ZM62.6338 17.1795C62.6338 14.044 64.9246 11.9068 67.7921 11.9068C69.4908 11.9068 70.6827 12.6517 71.4876 13.6735C71.5115 13.704 71.5286 13.7393 71.5377 13.777C71.5468 13.8148 71.5477 13.8541 71.5404 13.8922C71.533 13.9304 71.5176 13.9665 71.4951 13.998C71.4727 14.0296 71.4437 14.0559 71.4102 14.0752L70.8452 14.3911C70.7829 14.426 70.7104 14.4377 70.6403 14.4242C70.5703 14.4106 70.5072 14.3727 70.4621 14.317C70.1386 13.9184 69.7312 13.5972 69.2694 13.3767C68.8077 13.1561 68.303 13.0417 67.7921 13.0417C65.6212 13.0417 63.9378 14.7538 63.9378 17.1834C63.9378 19.5974 65.6212 21.3251 67.7921 21.3251C68.8949 21.3251 69.8662 20.8103 70.4621 20.0498C70.5067 19.9935 70.5695 19.9548 70.6396 19.9405C70.7097 19.9262 70.7825 19.9373 70.8452 19.9718L71.418 20.2877C71.4521 20.3068 71.4818 20.3332 71.5047 20.3651C71.5276 20.397 71.5434 20.4336 71.5507 20.4723C71.5581 20.511 71.557 20.5508 71.5474 20.589C71.5379 20.6272 71.5201 20.6628 71.4953 20.6933C70.6595 21.7229 69.4908 22.4561 67.7921 22.4561C64.9246 22.4522 62.6338 20.315 62.6338 17.1795Z" fill="white"/>
<path fill-rule="evenodd" clip-rule="evenodd" d="M16.5999 26.9192C21.8927 28.247 27.2435 24.9958 28.5602 19.6715C29.8737 14.3439 26.6529 8.935 21.3569 7.62345C16.0771 6.29563 10.7295 9.54684 9.41278 14.8711C8.09606 20.1955 11.3169 25.5881 16.5999 26.9192ZM13.2411 15.0758C12.0487 18.2665 13.6934 21.8715 16.9004 23.0317C17.0237 23.1146 17.1471 23.2803 17.1471 23.4046V23.9848C17.1471 24.0676 17.1471 24.1091 17.1059 24.1504C17.0649 24.3162 16.9004 24.3991 16.7359 24.3162C14.4334 23.5704 12.6655 21.7886 11.9254 19.4681C10.6919 15.5317 12.8299 11.3465 16.7359 10.1035C16.777 10.0621 16.8592 10.0621 16.9004 10.0621C17.0649 10.1035 17.1471 10.2278 17.1471 10.3935V10.9736C17.1471 11.1809 17.0649 11.3052 16.9004 11.388C15.2147 12.0096 13.8579 13.3355 13.2411 15.0758ZM21.7108 18.6808C21.7108 17.2306 20.8474 16.7334 19.1206 16.5262C17.8871 16.3604 17.6404 16.029 17.6404 15.4488C17.6404 14.8686 18.0516 14.4958 18.8739 14.4958C19.614 14.4958 20.0251 14.7444 20.2307 15.366C20.2718 15.4903 20.3952 15.5731 20.5185 15.5731H21.1763C21.3408 15.5731 21.4641 15.4488 21.4641 15.2831V15.2416C21.2996 14.33 20.5596 13.6256 19.614 13.5428V12.5483C19.614 12.3825 19.4906 12.2582 19.2851 12.2167H18.6683C18.5038 12.2167 18.3805 12.3411 18.3393 12.5483V13.5013C17.1059 13.6671 16.3248 14.4958 16.3248 15.5317C16.3248 16.8991 17.147 17.4378 18.8739 17.645C20.0251 17.8521 20.3952 18.1008 20.3952 18.7638C20.3952 19.4268 19.8195 19.8826 19.0384 19.8826C17.9693 19.8826 17.5993 19.4267 17.4759 18.8052C17.4349 18.6395 17.3115 18.5565 17.1882 18.5565H16.4892C16.3248 18.5565 16.2014 18.6808 16.2014 18.8466V18.8881C16.3658 19.9239 17.0237 20.6698 18.3805 20.8771V21.8715C18.3805 22.0372 18.5038 22.1615 18.7094 22.203H19.3261C19.4906 22.203 19.614 22.0787 19.6551 21.8715V20.8771C20.8886 20.6698 21.7108 19.7996 21.7108 18.6808ZM20.8886 10.2692C20.9296 10.1035 21.0941 10.0206 21.2586 10.1035C23.5199 10.8493 25.3291 12.6311 26.0691 14.993C27.3026 18.9294 25.1646 23.1146 21.2586 24.3577C21.2175 24.3991 21.1353 24.3991 21.0941 24.3991C20.9296 24.3577 20.8474 24.2334 20.8474 24.0676V23.4875C20.8474 23.2803 20.9296 23.156 21.0941 23.0731C22.7798 22.4516 24.1366 21.1256 24.7534 19.3853C25.9458 16.1946 24.3011 12.5896 21.0941 11.4295C20.9708 11.3465 20.8474 11.1809 20.8474 11.0151V10.435C20.8474 10.3521 20.8474 10.3107 20.8886 10.2692Z" fill="white"/>
</svg>
