<svg width="100" height="34" viewBox="0 0 100 34" fill="none" xmlns="http://www.w3.org/2000/svg">
<path d="M16.6807 16.6307C19.5963 16.6307 22.0332 16.1453 22.6296 15.497C22.1239 14.9472 20.2945 14.5146 17.9722 14.3958V15.7653C17.5559 15.7866 17.1239 15.7978 16.6807 15.7978C16.2376 15.7978 15.8055 15.7866 15.3892 15.7653V14.3958C13.0669 14.5146 11.2376 14.9472 10.7319 15.497C11.3283 16.1453 13.7652 16.6307 16.6807 16.6307Z" fill="white"/>
<path fill-rule="evenodd" clip-rule="evenodd" d="M9.96971 7.18103H23.6253C23.9511 7.18103 24.2521 7.35031 24.4146 7.62495L28.3931 14.3489C28.5994 14.6975 28.5381 15.1377 28.2438 15.4204L17.2931 25.9425C16.9384 26.2833 16.3677 26.2833 16.0129 25.9425L5.07701 15.4346C4.77589 15.1453 4.7195 14.6924 4.94093 14.3415L9.19357 7.60338C9.35918 7.34096 9.65309 7.18103 9.96971 7.18103ZM21.8621 10.183V12.0696H17.9722V13.3777C20.7042 13.5175 22.7539 14.0916 22.7692 14.7797L22.7691 16.2143C22.7539 16.9024 20.7042 17.4765 17.9722 17.6163V20.8264H15.3892V17.6163C12.6572 17.4765 10.6075 16.9024 10.5923 16.2143L10.5924 14.7797C10.6076 14.0916 12.6572 13.5175 15.3892 13.3777V12.0696H11.4993V10.183H21.8621Z" fill="white"/>
<path d="M33.7239 10.8298L36.8805 10.4846V13.4624H39.6207V16.0519H36.8586V20.0655C36.8586 21.015 37.2678 21.4897 38.0862 21.4897C38.6123 21.4897 39.0507 21.4034 39.4014 21.2307L40.1249 23.8202C39.4088 24.0935 38.6488 24.2518 37.8451 24.2949C36.5736 24.3525 35.5653 24.0575 34.8199 23.4102C34.0892 22.7484 33.7239 21.6335 33.7239 20.0655V16.0519H31.7948V13.4624H33.7239V10.8298Z" fill="white"/>
<path fill-rule="evenodd" clip-rule="evenodd" d="M43.4776 19.7418H51.4349C51.7711 17.6271 51.4276 15.9943 50.4046 14.8434C49.3963 13.6925 47.9348 13.1171 46.0204 13.1171C44.2667 13.1171 42.871 13.6278 41.8335 14.6492C40.7958 15.6562 40.2771 16.9797 40.2771 18.6196C40.2771 20.3604 40.8031 21.7414 41.8554 22.7628C42.9222 23.7842 44.4202 24.2948 46.3492 24.2948C48.3659 24.2948 49.9151 23.7698 50.9965 22.7196L49.2209 20.7776C48.5632 21.3386 47.628 21.6191 46.415 21.6191C45.5674 21.6191 44.8878 21.4465 44.3763 21.1012C43.8648 20.7416 43.5652 20.2884 43.4776 19.7418ZM48.6071 17.476H43.4776C43.6383 16.9437 43.9452 16.5266 44.3982 16.2244C44.8513 15.9223 45.392 15.7713 46.0204 15.7713C46.7219 15.7713 47.3211 15.9223 47.818 16.2244C48.3148 16.5122 48.5778 16.9294 48.6071 17.476Z" fill="white"/>
<path d="M54.0666 10.8298L57.2233 10.4846V13.4624H59.9634V16.0519H57.2014V20.0655C57.2014 21.015 57.6105 21.4897 58.4289 21.4897C58.955 21.4897 59.3935 21.4034 59.7442 21.2307L60.4676 23.8202C59.7515 24.0935 58.9916 24.2518 58.1878 24.2949C56.9164 24.3525 55.908 24.0575 55.1627 23.4102C54.432 22.7484 54.0666 21.6335 54.0666 20.0655V16.0519H52.1376V13.4624H54.0666V10.8298Z" fill="white"/>
<path d="M64.8298 8.95243H61.6513V24.0575H64.8079V18.6628C64.8079 17.8429 65.0344 17.2027 65.4875 16.7424C65.9551 16.282 66.5324 16.0518 67.2193 16.0518C67.8477 16.0518 68.3446 16.2532 68.7099 16.656C69.0899 17.0588 69.2799 17.6271 69.2799 18.3608V24.0575H72.4365V18.3392C72.4365 14.9297 70.997 13.225 68.118 13.225C66.7005 13.225 65.6044 13.7213 64.8298 14.714V8.95243Z" fill="white"/>
<path fill-rule="evenodd" clip-rule="evenodd" d="M84.8165 19.7418H76.8594C76.9471 20.2884 77.2467 20.7416 77.7578 21.1012C78.2695 21.4465 78.9493 21.6191 79.7972 21.6191C81.0098 21.6191 81.9454 21.3386 82.6025 20.7776L84.3787 22.7196C83.2969 23.7698 81.748 24.2948 79.7314 24.2948C77.8017 24.2948 76.3041 23.7842 75.2372 22.7628C74.185 21.7414 73.6589 20.3604 73.6589 18.6196C73.6589 16.9797 74.1777 15.6562 75.2153 14.6492C76.2529 13.6278 77.6482 13.1171 79.4025 13.1171C81.3168 13.1171 82.7779 13.6925 83.7866 14.8434C84.8092 15.9943 85.1528 17.6271 84.8165 19.7418ZM76.8594 17.476H81.9893C81.96 16.9294 81.6969 16.5122 81.1998 16.2244C80.7028 15.9223 80.1034 15.7713 79.4025 15.7713C78.7738 15.7713 78.2329 15.9223 77.7798 16.2244C77.327 16.5266 77.0202 16.9437 76.8594 17.476Z" fill="white"/>
<path d="M89.0631 13.4192H86.1255V24.0575H89.2824V18.5118C89.2824 17.7493 89.5237 17.1523 90.0061 16.7208C90.4885 16.2748 91.0871 16.0518 91.8034 16.0518C92.4467 16.0518 93.0234 16.2316 93.535 16.5912L94.8507 14.1313C94.1052 13.4839 93.2207 13.1603 92.1982 13.1603C90.9556 13.1603 89.9914 13.635 89.3044 14.5844L89.0631 13.4192Z" fill="white"/>
</svg>
