<svg width="60" height="20" viewBox="0 0 60 20" fill="none" xmlns="http://www.w3.org/2000/svg">
<path d="M29.7702 1.09508L25.8064 19.6242H21.0133L24.9777 1.09508H29.7702ZM49.9367 13.0594L52.4602 6.10107L53.9123 13.0594H49.9367ZM55.2846 19.6242H59.7182L55.8493 1.09508H51.7571C50.8375 1.09508 50.0616 1.62992 49.7162 2.45448L42.5251 19.6242H47.5586L48.5579 16.8573H54.7075L55.2846 19.6242ZM42.7749 13.5743C42.7954 8.68382 36.0119 8.41464 36.0588 6.23009C36.0729 5.56446 36.7068 4.85837 38.0915 4.67715C38.7794 4.58742 40.6707 4.51881 42.8183 5.50699L43.6593 1.57773C42.5057 1.159 41.0214 0.756104 39.1752 0.756104C34.4378 0.756104 31.1033 3.27494 31.0751 6.88164C31.0452 9.54885 33.4555 11.0373 35.2718 11.924C37.1391 12.8324 37.7666 13.4142 37.7584 14.2264C37.746 15.4703 36.2688 16.018 34.8906 16.0397C32.4803 16.0779 31.0816 15.3894 29.9667 14.8698L29.0982 18.9298C30.2177 19.4441 32.285 19.891 34.4296 19.9139C39.4644 19.9139 42.7585 17.4261 42.7749 13.5743ZM22.921 1.09508L15.1552 19.6242H10.0876L6.26627 4.83667C6.03403 3.9259 5.83229 3.59279 5.12679 3.20867C3.97557 2.58409 2.07252 1.99705 0.398193 1.63344L0.512552 1.09508H8.66839C9.70759 1.09508 10.643 1.78709 10.8787 2.98405L12.8973 13.7068L17.8851 1.09508H22.921Z" fill="white"/>
</svg>
